<?xml version="1.0" encoding="UTF-8"?>
<svg width="2883px" height="1621px" viewBox="0 0 2883 1621" version="1.1" xmlns="http://www.w3.org/2000/svg" xmlns:xlink="http://www.w3.org/1999/xlink">
    <title>shutterstock_1399119104 [Converted]</title>
    <g id="Page-1" stroke="none" stroke-width="1" fill="none" fill-rule="evenodd">
        <g id="shutterstock_1399119104-[Converted]" fill="#3B606B" fill-rule="nonzero">
            <g id="2" transform="translate(1292.700000, 550.000000)">
                <path d="M1588.3,331.9 L1588.3,1069.6 L1.13686838e-13,1069.6 L187.8,982 L278.9,921.3 L365.4,897.5 L483.6,865 L559.7,844.2 L588.7,836.2 L622.7,824.2 L638.7,798.2 L665.7,764.2 L686.7,740.2 L692.5,731.5 L704.7,713.2 L719.7,693.2 L719.7,675.2 L742.3,653.6 L776.7,559.8 L770.7,544.8 L766.2,516.3 L757.2,504.3 L769.2,496.8 L757.2,486 L757.2,466.8 L832.2,465.3 L1096.2,499.8 L1142.7,504.3 L1201.2,516.3 L1319.7,516.3 C1319.7,516.3 1325.7,484.8 1328.7,475.8 C1331.7,466.8 1355.7,436.8 1355.7,436.8 L1375.2,418.8 L1429.2,411.3 L1429.2,397.8 L1438.2,379.8 L1472.7,379.8 L1492.2,349.8 L1511.7,331.9 L1531.2,322.1 L1543.2,312.3 L1561.2,312.3 L1588.3,331.9 Z" id="XMLID_698_"></path>
                <g id="XMLID_49_" transform="translate(1229.300000, 120.000000)">
                    <path d="M102.1,404.2 C102.1,404.2 102.1,404.2 101.2,404.3 C101.7,404.3 102.1,404.2 102.1,404.2 Z" id="XMLID_147_"></path>
                    <path d="M132.9,262.5 C132.9,262.5 122.7,260.6 115.7,259.8 C108.7,259 102.3,258.4 102.3,258.4 L108.9,254 L95.3,254.9 L96.8,249.5 L89.4,251.5 L77.1,248.8 L76.7,246.8 L75,247.2 C74.8,244.5 74.7,241.8 74.5,239.1 C74.8,239.5 75,239.8 75.1,240 C75.6,241 75.9,241.4 77.2,242.2 C78.5,242.9 81.1,244.4 81.1,244.4 L80.4,240.9 C80.4,240.9 85.1,243.8 86.4,244.3 C87.7,244.8 87,243.5 89.8,244.8 C92.6,246.1 95,246.4 95.1,246.4 L91.3,243 C91.3,243 89.3,242.7 92.9,242.4 C96.5,242.2 99.6,242.5 100.1,240.9 C100.2,240.4 100.4,240 100.5,239.5 C101.3,241.1 101.8,241.4 101.8,241.4 L113,253.1 L113.9,242.7 C113.9,242.7 116.6,247.4 122,254.1 C127.4,260.9 126.3,256.3 126.3,256.3 L126.5,247.5 C126.5,247.5 134.7,254.6 136.6,256.3 C138.5,258 147.1,253.5 147.1,253.5 L128.7,235.6 L134.7,239.6 L126.9,226.3 C126.9,226.3 129.3,227.1 133.8,228.4 C138.2,229.7 138.7,227.8 138.7,227.8 L118,217 C118,217 122.1,216.3 127.3,215 C127.3,215 110.1,211.1 109.4,209.7 C108.7,208.4 119.7,206.7 119.7,206.7 C119.7,206.7 117.3,206.9 116.8,206.9 C116.2,206.9 103.7,205.5 99.9,204.6 C96.1,203.7 103,204.4 105.1,202.2 C107.1,200 103.1,201.4 103.1,201.4 C103.1,201.4 99.5,200.5 95.8,199.5 C93.6,192.2 92.6,189.1 92.6,189.1 C92.6,189.1 104.6,200.1 106.8,200.1 C109,200.2 119.2,205.5 110.1,199.2 C101,192.9 89.5,181 94.3,183.9 C99,186.8 110.2,194.4 115.5,194.2 C120.8,194.1 134.1,200.3 122.3,193.3 C110.6,186.3 102.3,180.1 102.3,180.1 C102.3,180.1 125.1,183.6 126.1,182 C127,180.3 121.2,176.1 121.2,176.1 C121.2,176.1 105.6,170 106.3,169.5 C107.1,169 127.3,158.4 127.3,158.4 C127.3,158.4 116,155.2 113.9,156.3 C111.8,157.4 113.4,158.4 105.3,158.3 C97.2,158.2 96.5,159.1 90,157.5 C88.8,157.2 87.3,156.7 85.5,156 L85,148.5 L94.8,155.4 C93.6,150.6 90.9,147.7 90.9,147.7 C90.9,147.7 104.7,152.3 107.9,151.1 C111.1,149.8 114.7,146.5 114.7,146.5 C101.6,145.6 94.2,146.1 98.2,143.8 C102.2,141.5 113,134.5 107.6,134.5 C102.3,134.5 99.6,138.2 93,133.4 C86.5,128.7 76.2,125.2 75.5,123.5 C75.1,122.5 70.6,119.6 67.2,117.5 C67,114.9 66.9,112.4 66.7,109.9 C68.1,112 69.2,114 69.7,114.6 C70.3,115.2 70.3,111.6 70.3,111.6 C70.3,111.6 71.2,112.9 72.9,114.9 C74.6,116.9 77.2,120.1 77.2,120.1 L76.4,114.6 C76.4,114.6 77.3,115.7 79.3,119.9 C81.4,124.1 86.1,123.8 86.1,123.8 L84.6,118.8 C84.6,118.8 87.5,121.4 87.5,122.3 C87.5,123.2 91.1,124.1 96.5,127.9 C101.9,131.7 99.6,129.1 99.6,129.1 L94.1,118.6 L99,120.6 L105.7,124.3 C105.7,124.3 99.5,117.1 96.8,115.2 C96.8,115.2 106.5,115.7 107.9,115.1 C109.2,114.5 104.5,113.9 104.5,113.9 C104.5,113.9 98.4,111.5 94.2,110.2 C90,108.9 86.1,107.7 86.1,107.7 L90.6,105.8 L82.2,104.8 L83.6,101.7 L78.9,102 L71.6,98.9 L71.5,97.6 L68,97.8 L69.3,96.3 L65.9,94 C65.8,92.6 65.7,91.2 65.6,89.8 L65.8,89.9 L67.5,89.9 L66.5,85.2 C66.5,85.2 65.2,81.6 66.3,82.4 C67.4,83.2 70.4,86.8 70.9,87.9 C71.4,88.9 71.7,89.3 73,90.1 C74.3,90.9 76.9,92.3 76.9,92.3 L76.2,88.8 C76.2,88.8 81,91.7 82.2,92.2 C83.5,92.7 82.8,91.4 85.6,92.7 C88.5,94 90.9,94.3 90.9,94.3 L87.1,90.9 C87.1,90.9 85.1,90.6 88.7,90.3 C92.3,90.1 95.4,90.4 95.9,88.8 C96.4,87.2 96.7,85.9 96.7,85.9 C96.7,85.9 91,85.7 87.8,84 C84.6,82.3 81.3,80.1 81.3,80.1 C81.3,80.1 84.6,80.6 85.6,79.7 C86.6,78.8 86.8,78 86.8,78 C86.8,78 77.8,76.6 77.3,76.9 C76.8,77.2 73.1,77.2 73.1,77.2 L73.1,74.3 L69.5,73.6 C69.5,73.6 69,73.4 68.4,73.2 C68.4,72.8 68.3,72.4 68.2,71.9 C67.7,69.9 67.3,68.9 67.3,68.9 C67.3,68.9 70.5,69.6 72.1,70.3 C73.7,71 74.7,72.1 76.3,72.1 C77.9,72.1 81.5,71.9 82.4,72 C83.3,72 85.5,71.9 85.5,71.9 C85.5,71.9 86.8,72 84.1,71 C81.4,70 81.5,70.1 79.2,69.1 C76.9,68 81.4,66.1 81.7,66.1 C82,66.1 83.5,64.1 83.5,64.1 C83.5,64.1 75,64.8 73.4,64.8 C71.8,64.7 67.9,63 67.9,63 L63.8,60.6 C63.7,58.4 63.5,56.4 63.4,54.4 L63.7,54.9 C63.7,54.9 64.9,56.5 65.2,57 C65.5,57.5 67.7,59.9 68.6,60.5 C69.5,61 70.6,61.7 70.6,61.7 C70.6,61.7 67.8,57.9 67.7,57.5 C67.7,57.1 65.9,56.4 67.7,57.1 C69.5,57.8 72.4,59.2 75,59.5 C77.7,59.8 79,60.1 80,60 C81,59.9 80.6,60 81.5,59.1 C82.4,58.3 83,58.8 82.4,58.3 C81.8,57.7 75.4,57.5 72.5,55.8 C69.6,54.1 67.9,53.3 67.3,52.3 C66.7,51.3 64.1,51.4 66.7,51.3 C69.3,51.2 71.5,51.2 71.7,51.1 C71.9,51.1 70.6,49.2 70.6,49.2 C70.6,49.2 75.2,51 75.5,51 C75.7,51 77.7,50.6 78.6,49.8 C79.5,49 80.9,47.8 80.9,47.8 C80.9,47.8 75.1,45.8 73.8,46 C72.6,46.2 71.5,46.4 69.9,46.3 C68.3,46.2 67.9,47.1 65.6,46 C65.5,46 65.5,45.9 65.4,45.9 C67.5,44.7 70.9,42.6 72.4,42.2 C74.3,41.6 79.2,39.9 79.2,39.9 L70,38.2 C70,38.2 69.8,38.7 67.1,39.5 C64.4,40.4 64.4,40.4 64.4,40.4 C64.4,40.4 64.4,36.9 66.3,36.1 C68.2,35.3 73.7,32.1 73.7,32.1 L76.9,29.8 C76.9,29.8 72.8,29.2 70.8,29.5 C68.9,29.9 66.3,30.5 65.4,31 C64.4,31.5 64,30.6 64,30.6 L63.7,27.2 L67.4,23.1 L67.2,20.6 L64,22 L64.1,18.7 L64,17 L62.4,17.1 C62.4,17.1 62.3,18.2 62.4,18.9 C62.4,19.6 62.5,21.7 62.4,22.1 C62.3,22.5 61.2,22.2 61.2,22.2 L61.5,13.4 L58.3,0.7 C58.3,0.7 57.4,-0.3 58.4,2.3 C59.4,4.9 57.9,9.3 57.9,9.3 L57.8,13.9 C57.8,13.9 57.5,18.5 57.6,19.7 C57.7,20.8 57.5,24.8 57.5,24.8 L58.6,29.3 L54.5,23.8 L50.9,21.3 L53.4,27.1 L60.5,33.1 L60.5,33.1 L52.9,31.2 L55.5,34.5 L57.9,41 C57.9,41 59.5,41 60.3,41.2 C60.3,41.3 60.3,41.5 60.3,41.6 C58.4,42.1 52.1,37.7 52.1,37.7 L46.7,37.8 L52.3,40.9 L54.2,44.2 L59.3,44.5 L57.5,45.6 L53.7,47 L50.2,48.3 C50.2,48.3 46.6,48.9 45.7,49 C44.8,49.1 42.9,49.1 42.9,49.1 C42.9,49.1 43.7,50.2 44.5,50.3 C45.2,50.4 48.6,51.2 49.1,51 C49.6,50.8 50.8,50.5 50.8,50.5 L50.1,52.7 C50.1,52.7 50.7,51.5 53.2,51 C55.7,50.6 56.6,48.6 57.1,47.9 C57.6,47.2 58.3,46.6 58.3,46.6 L53.4,53.6 L48.7,56.8 L44.9,57.9 C44.9,57.9 46.2,58.3 47.5,58.4 C48.8,58.5 51,59 51.1,58.3 C51.2,57.6 51.4,57.7 51,59 C50.6,60.3 50.5,61.5 50.5,61.5 C50.5,61.5 53.7,59 54.4,57.8 C55.1,56.5 56.1,55 56.1,55 L57,60.1 L53.7,62.2 C53.7,62.2 51.8,63.9 51,64 C50.2,64.1 46.8,65.8 46.2,66.3 C45.6,66.8 42.1,67.1 42.1,67.1 C42.1,67.1 40.1,67.2 40.8,67.5 C41.5,67.8 44.9,69.6 45.2,69.6 C45.5,69.6 48.6,68.8 49,68.7 L45,71.1 L42.7,75.5 L40.9,78.9 C40.9,78.9 41.5,78.3 44.3,76.3 C47.1,74.3 47.7,76.4 49.5,74.1 C51.3,71.7 52.3,70.6 52.3,70.1 C52.3,69.6 52.5,72.4 52.5,72.4 C52.5,72.4 52.6,73.2 52.6,73.7 C52.5,72.4 54.6,69 54.6,68.4 C54.6,67.8 54.8,67.2 54.8,67.2 C54.8,67.2 55.8,71.8 55.9,70.2 C55.9,68.6 56,65.7 56.2,65.4 C56.4,65.1 57.7,65.9 57.7,65.9 L58.8,65.6 C58.8,65.6 60.1,65.8 60.3,66.1 C60.3,66.1 60.3,66.1 60.3,66.1 C60.3,67.8 60.3,69.6 60.3,71.4 C59.4,71.5 58.7,71.5 58.7,71.5 C58.7,71.5 57.8,71.3 56,72.3 C54.2,73.2 50.5,75.7 49.6,76.2 C48.7,76.7 46.7,78.5 46.7,78.5 L48.1,78.4 L45.3,80.4 L43.6,82.5 L43,83.3 L44.9,84.1 L38.4,88.2 L38.5,89.6 L41.1,90.2 L36.3,95.5 C36.3,95.5 35.7,96.8 35.3,97.6 C34.9,98.4 34.5,99.6 34.5,99.6 L38.6,96.7 L40.4,95.2 L40.9,98.7 C40.9,98.7 42.6,97.3 42.7,96.5 C42.8,95.7 43.9,93.9 43.9,93.9 C43.9,93.9 45.9,94.5 46,95.7 C46.1,97 46.3,100.1 46.3,100.1 C46.3,100.1 47.3,98.3 47.4,97.9 C47.6,97.5 49.4,95 49.8,93.8 C50.2,92.6 50.5,91.6 50.5,91.6 L52.2,95.4 C52.2,95.4 52.7,97.3 53.2,94.3 C53.7,91.3 54.5,88.8 54.5,88.8 L56.4,91.3 L57.5,89.2 L60.4,86.7 C60.4,89.3 60.5,92 60.5,94.9 C57.3,96.6 53.4,98.9 53,99.7 C52.3,101 48.4,101.5 48.4,101.5 L46.8,103.9 L39.4,105.5 L42.8,107.3 C42.8,107.3 35.4,110.3 34,110.9 C32.7,111.5 30.9,112.3 30.4,113 C29.9,113.7 41.4,112.3 41.4,112.3 L40.5,115.8 L31,121.7 C31,121.7 33.6,121.5 37,119.9 C40.4,118.3 41.1,119.6 42.3,119.5 C43.5,119.4 47.5,114.8 47.5,114.8 L48.4,116.8 L52.1,116.1 L57.2,110.9 L57.4,114.1 L60.8,112.4 L60.8,112.4 C60.8,113.5 60.8,114.6 60.9,115.8 L54,120.7 L54.1,122.4 L49.9,125.8 C49.9,125.8 46.1,126.7 45.6,127.8 C45.1,128.9 37.9,131.8 37.9,131.8 L42.1,133.1 L32.1,139.4 C32.1,139.4 23.9,140.6 30.1,140.2 C36.3,139.8 40.2,138.5 36.9,139.7 C33.7,141 25.1,146 25.1,146 L21.6,146.9 L28.1,146.5 C28.1,146.5 29,146.4 27.4,149.3 C25.8,152.2 22.4,157.9 22.4,157.9 C22.4,157.9 36.4,150.4 34.6,151.6 C32.8,152.8 29.8,165.4 30.4,166.1 C31,166.7 38.2,157.6 38.2,157.6 L38.9,168.6 C38.9,168.6 43.4,156.5 44,155.8 C44.4,155.4 45.2,157.4 45.7,159.2 L43.9,160.1 L45.5,165.8 C45.5,165.8 42.5,168.8 41.8,170 C41.1,171.2 42.6,171.3 39.1,173.4 C35.6,175.5 31,177.6 31,177.6 L20.1,180.6 L22.5,181.4 L23.9,182.9 L17.4,184.9 C17.4,184.9 17.8,185.6 19.6,185.7 C21.4,185.8 26.3,185.5 26.3,185.5 L8.9,191.5 L15,194.3 L20.4,195.3 L11.5,197.5 L9.6,202.2 C9.6,202.2 16.3,202.7 18.7,202.5 C21.1,202.3 25.1,202.5 25.1,202.5 C25.1,202.5 18,212.2 20.8,209.9 C23.6,207.6 31.1,202.1 31.1,202.1 C31.1,202.1 31.5,205.1 32.3,205.2 C33.1,205.4 37,200.3 37.4,198.2 C37.8,196.1 37.9,185.5 38.3,194.9 C38.7,204.3 38.7,204.3 38.7,204.3 L44.5,190.8 L45.2,200.7 C45.2,200.7 45.8,201.1 46.7,200.9 L46.5,201.1 C46.5,201.1 40.2,202 46.6,202.5 C53,203 28.6,213.2 28.6,213.2 L35.3,212.8 C35.3,212.8 37.2,217.1 32.9,218.5 C28.7,219.9 21,223.7 23,223.5 C25,223.4 32.6,222.9 32.6,222.9 L11.6,230.3 L14.6,233.3 C14.6,233.3 20,232.4 22,232 C19.5,233.1 12.2,239 12.2,239 C12.2,239 5.7,239.7 3.2,240.5 C0.7,241.4 -0.2,242.6 0.4,243.2 C1,243.8 16.6,243.3 16.6,243.3 L6.6,250 C6.6,250 9.9,249.5 10.9,249.7 C11.9,249.9 10.9,252.5 10.9,252.5 L4.6,261.5 C4.6,261.5 20.8,255.3 22.2,252.6 C23.6,250 26.8,245.1 26.8,245.1 C26.8,245.1 19.3,265 23.3,261.2 C27.4,257.5 27.9,252.6 28.5,251.9 C29.1,251.2 34.8,241.6 34.8,241.6 C34.8,241.6 33,258.8 34.8,256.6 C36.6,254.4 39.5,249.4 40.6,245.8 C41.7,242.3 43.7,234.3 43.7,234.3 L47.1,247.4 C47.1,247.4 51.5,245 51.6,240.6 C51.7,236.2 52.5,230.6 52.5,229.9 C52.5,229.4 53.7,242.5 54.7,248.6 C51.2,251.5 48,254.4 47.7,255.4 C46.9,257.7 40.8,259.7 40.8,259.7 L38.7,264.1 L27.4,269 L33.3,270.9 C33.3,270.9 22.2,278.1 20.1,279.4 C18.1,280.7 15.5,282.5 14.8,283.9 C14.1,285.2 32.1,279.3 32.1,279.3 L31.4,285.2 L17.7,297.6 C17.7,297.6 21.7,296.5 26.8,292.9 C31.9,289.2 33.3,291.2 35.2,290.7 C37.1,290.2 42.4,281.5 42.4,281.5 L44.4,284.4 L50.1,282.1 L57,272.2 L58.1,277.3 L59.7,276.1 L63.7,278.4 L55.1,280.8 L55.8,285.9 C55.8,285.9 52.9,288 52.1,288.9 C51.3,289.8 52.6,290.2 49.4,291.4 C46.1,292.6 41.9,293.7 41.9,293.7 L32.2,294.5 L34.2,295.5 L35.2,297 L29.4,297.7 C29.4,297.7 29.7,298.3 31.2,298.7 C32.7,299.1 37,299.6 37,299.6 L21.3,301.9 L26.2,305.3 L30.7,307.1 L22.7,307.6 L20.5,311.4 C20.5,311.4 26.3,312.9 28.3,313.1 C30.4,313.3 33.8,314.2 33.8,314.2 C33.8,314.2 26.5,321.4 29.2,319.9 C31.9,318.4 39.1,314.8 39.1,314.8 C39.1,314.8 39.1,317.4 39.8,317.7 C40.5,318 44.5,314.2 45.1,312.5 C45.7,310.8 47,301.7 46.3,309.8 C45.6,317.9 45.6,318 45.6,318 L52.2,307.3 L51.6,315.9 C51.6,315.9 54,318 55.8,312.8 C57.6,307.6 59.8,305.6 60,302.6 C59.9,304.3 59.6,308.8 59.6,308.8 C59.6,308.8 60.8,309.1 62.5,303.9 C64.3,298.7 65.6,293.8 65.6,293.8 C65.6,293.8 65.7,302.3 66.1,301.5 C66.3,301.2 66.7,301 67.2,300.6 C67.9,315 68.6,330.1 69.3,346.1 C69.7,391.7 61.2,405.8 51.5,406.4 C88.7,403.9 98.5,403.2 101,403.1 C97.5,403 84.6,398.8 81.1,346.4 C80.4,335.7 79.3,318.7 78,298 L80.2,302.4 L83.2,299.7 L89.6,311.6 C89.6,311.6 95.5,323.9 95.3,322.5 C94.2,315.5 93.7,312.7 93.7,312.7 C93.7,312.7 102.8,324.1 104.6,324.5 C106.5,324.9 114.7,331.1 107.6,324.3 C100.5,317.4 92,305.3 95.7,308.6 C99.4,311.9 108.2,320.2 112.8,320.9 C117.4,321.7 128.1,329.2 118.8,321.2 C109.5,313.2 103,306.6 103,306.6 C103,306.6 122.3,313.3 123.3,312.1 C124.3,310.8 119.8,306.2 119.8,306.2 C119.8,306.2 107,298.4 107.7,298.1 C108.4,297.8 127.2,292 127.2,292 C127.2,292 117.8,287.5 115.9,288 C114,288.6 115.3,289.7 108.3,288.3 C101.3,286.9 100.6,287.6 95.2,285.1 C91,283.2 80.6,276 76.4,273.1 C76.4,272.6 76.3,272.1 76.3,271.6 C76.9,272.2 77.3,272.7 77.6,272.9 C78.8,273.7 77.8,267.9 77.8,267.9 C77.8,267.9 79.5,269.7 82.7,272.4 C85.9,275 90.7,279.5 90.7,279.5 L88.2,271 C88.2,271 89.8,272.5 94.1,278.6 C98.3,284.8 105.8,282.8 105.8,282.8 L102.3,275.3 C102.3,275.3 107.6,278.5 107.7,280 C107.9,281.5 113.8,281.8 123.2,286.2 C132.6,290.6 128.4,287.1 128.4,287.1 L117.3,272.1 L125.6,273.7 L137.1,277.5 C137.1,277.5 125.6,267.9 120.9,265.7 C120.9,265.7 136.4,263.5 138.5,262.2 C140.6,260.9 132.9,262.5 132.9,262.5 Z M60.1,303.5 C60.2,303.1 60.2,303.2 60.1,303.5 L60.1,303.5 Z M82.1,189.7 L70.8,180.7 C70.6,178.1 70.5,175.6 70.3,173 L75.5,180.4 L78.4,176.7 L87.5,188.8 C87.5,188.8 89.5,191.8 91.6,194.8 L80.8,191.2 L84,189.6 L82.1,189.7 Z M81.5,228.9 C81,229.2 77.3,229.2 77.3,229.2 L77.3,226.3 L73.7,225.6 C73.7,225.6 73.6,225.6 73.5,225.5 C73.4,223.8 73.3,222.1 73.2,220.3 C74.6,220.8 77,208.1 77,208.1 C77,208.1 78.4,211.2 79.1,213 C79.8,214.8 81.4,223.9 81.4,223.9 L83.8,212 C83.8,212 85.9,216.2 86.8,218.9 C87.5,220.8 88.9,226.4 89.7,229.6 C87.3,229.4 81.9,228.7 81.5,228.9 Z M99.8,237.8 C98,237.6 94.3,237.2 92.1,236 C88.9,234.3 85.6,232.1 85.6,232.1 C85.6,232.1 88.9,232.6 89.9,231.7 C90,231.6 90.2,231.5 90.3,231.4 C90.4,231.8 90.5,232.1 90.5,232.1 L90.7,231 C91.1,230.5 91.2,230.1 91.2,230.1 C91.2,230.1 91.1,230.1 90.9,230.1 L93.1,218.2 C93.1,218.2 96.3,227.7 98.5,234.2 C98.9,235.6 99.3,236.8 99.8,237.8 Z M95,199.4 C91.5,198.5 88,197.5 87.6,197.2 C86.8,196.6 90,195 90,195 L91.7,194.9 C93,196.6 94.3,198.4 95,199.4 Z M72.4,140.9 L74.6,147.5 L76.7,147.4 L83.7,155.4 C78.9,153.5 73,150.8 69,149 C68.8,145.3 68.6,141.6 68.3,138 C70.3,139.2 72.4,140.9 72.4,140.9 Z M66.2,72.4 C66.3,72.6 66.5,72.7 66.6,72.8 C65.8,72.5 64.9,72.2 64.3,72.1 C64.3,71.5 64.2,70.9 64.2,70.3 L64.4,70.7 C64.4,70.7 64.2,70.1 66.2,72.4 Z M57.4,60.4 C57.5,59.6 57.6,58.9 57.8,58.4 C58.2,57.3 58.6,55.1 59,54.9 C59.4,54.8 59.6,55.2 59.6,55.2 C59.6,55.2 60.2,56.1 60.2,54.6 L60.2,54.6 C60.2,55.9 60.2,57.2 60.2,58.6 L57.4,60.4 Z M51.3,143.9 C52.1,142.5 53.9,144.8 53.9,144.8 C53.9,144.8 56,143.6 56.5,142 L61.4,143.2 C61.4,144.9 61.5,146.5 61.5,148.2 L48.2,154.7 L53.2,156.5 L47,159.5 C48.3,154.6 50.7,144.9 51.3,143.9 Z M48.4,201 C48.9,200.3 49.4,199.2 49.8,197.3 C51,191 53.1,188.3 52.9,184.9 C53,186.8 53.4,192 53.4,192 C53.4,192 54.8,192.1 55.9,185.8 C57.1,179.5 57.8,173.7 57.8,173.7 C57.8,173.7 59.2,183.3 59.6,182.3 C59.9,181.4 62.5,180.5 62.4,176.4 L62.4,176.4 C62.4,177.1 62.4,177.8 62.5,178.5 L57.2,190.3 L59,190.2 L55.6,196 L48.4,201 Z M61.2,238.5 C62.2,235.4 61.9,225.8 61.6,221.2 C61.4,219 62.7,221.3 64.1,224.3 C64.3,230 64.6,235.9 64.8,242 L64.7,242 C64.7,242 61.7,244.3 58.3,247 C59.5,243.8 60.7,240.1 61.2,238.5 Z M60.2,277 L63.3,274.6 L65.3,259.7 C65.3,259.7 65.4,259.9 65.5,260.2 C65.7,265.1 65.9,270.2 66.1,275.3 L60.2,277 Z" id="XMLID_50_"></path>
                </g>
                <g id="XMLID_148_" transform="translate(1297.300000, 2.000000)">
                    <path d="M118.1,473.9 C118.1,473.9 118.1,473.9 117.1,474 C117.7,474 118.1,473.9 118.1,473.9 Z" id="XMLID_176_"></path>
                    <path d="M153.3,307.4 C153.3,307.4 141.5,305.2 133.4,304.2 C125.3,303.2 117.9,302.5 117.9,302.5 L125.5,297.3 L109.8,298.4 L111.6,292.1 L103.1,294.4 L88.9,291.2 L88.4,288.9 L86.5,289.4 C86.3,286.2 86.1,283.1 85.9,279.9 C86.2,280.4 86.5,280.7 86.6,281 C87.1,282.2 87.5,282.7 89,283.5 C90.5,284.3 93.5,286 93.5,286 L92.7,281.9 C92.7,281.9 98.2,285.3 99.6,285.9 C101.1,286.5 100.3,284.9 103.6,286.4 C106.8,287.9 109.6,288.3 109.7,288.3 L105.3,284.3 C105.3,284.3 103,283.9 107.2,283.6 C111.4,283.3 114.9,283.8 115.5,281.8 C115.7,281.2 115.8,280.7 115.9,280.2 C116.9,282.1 117.4,282.5 117.4,282.5 L130.4,296.3 L131.4,284 C131.4,284 134.5,289.5 140.7,297.5 C146.9,305.5 145.7,300.1 145.7,300.1 L145.9,289.8 C145.9,289.8 155.3,298.1 157.5,300.1 C159.7,302.1 169.6,296.9 169.6,296.9 L148.4,275.8 L155.3,280.5 L146.3,264.9 C146.3,264.9 149.1,265.8 154.2,267.4 C159.3,269 159.8,266.8 159.8,266.8 L136,254 C136,254 140.7,253.1 146.8,251.7 C146.8,251.7 126.9,247.1 126.2,245.5 C125.4,243.9 138,242 138,242 C138,242 135.3,242.2 134.6,242.2 C133.9,242.2 119.5,240.5 115.1,239.4 C110.7,238.3 118.7,239.2 121,236.6 C123.3,234 118.7,235.7 118.7,235.7 C118.7,235.7 114.6,234.6 110.3,233.5 C107.8,224.9 106.7,221.3 106.7,221.3 C106.7,221.3 120.5,234.2 123,234.3 C125.5,234.4 137.3,240.7 126.8,233.2 C116.3,225.8 103.1,211.8 108.5,215.2 C114,218.6 126.8,227.5 133,227.4 C139.1,227.3 154.4,234.6 140.9,226.3 C127.4,218 117.8,210.8 117.8,210.8 C117.8,210.8 144.1,215 145.2,213 C146.3,211 139.6,206.1 139.6,206.1 C139.6,206.1 121.6,198.9 122.5,198.3 C123.4,197.7 146.6,185.3 146.6,185.3 C146.6,185.3 133.6,181.6 131.2,182.8 C128.8,184 130.7,185.3 121.4,185.1 C112.1,184.9 111.2,186.1 103.8,184.1 C102.5,183.8 100.7,183.1 98.6,182.3 L98,173.5 L109.3,181.7 C107.9,176.1 104.8,172.7 104.8,172.7 C104.8,172.7 120.7,178.1 124.3,176.7 C128,175.2 132.1,171.3 132.1,171.3 C117,170.3 108.5,170.8 113.1,168.1 C117.7,165.4 130.1,157.2 124,157.2 C117.9,157.2 114.7,161.5 107.2,155.9 C99.7,150.3 87.8,146.2 87,144.3 C86.5,143.1 81.4,139.7 77.4,137.2 C77.2,134.2 77,131.2 76.9,128.3 C78.5,130.8 79.8,133.2 80.4,133.8 C81.1,134.6 81.1,130.2 81.1,130.2 C81.1,130.2 82.1,131.8 84.1,134.1 C86.1,136.4 89.1,140.3 89.1,140.3 L88.2,133.9 C88.2,133.9 89.2,135.2 91.6,140.2 C94,145.2 99.4,144.8 99.4,144.8 L97.6,139 C97.6,139 101,142 100.9,143.1 C100.9,144.2 105,145.3 111.2,149.7 C117.4,154.2 114.8,151.1 114.8,151.1 L108.4,138.8 L114.1,141.1 L121.8,145.5 C121.8,145.5 114.6,137 111.5,134.8 C111.5,134.8 122.7,135.4 124.2,134.8 C125.7,134.2 120.2,133.4 120.2,133.4 C120.2,133.4 113.2,130.6 108.3,129.1 C103.4,127.5 99,126.2 99,126.2 L104.1,124 L94.4,122.8 L96,119.2 L90.6,119.6 L82.2,116 L82.1,114.5 L78,114.8 L79.5,113.1 L75.6,110.4 C75.5,108.7 75.4,107.1 75.3,105.5 L75.5,105.7 L77.4,105.7 L76.2,100.1 C76.2,100.1 74.7,95.8 76,96.8 C77.3,97.8 80.8,102 81.3,103.2 C81.8,104.4 82.2,104.9 83.7,105.7 C85.2,106.5 88.2,108.2 88.2,108.2 L87.4,104.1 C87.4,104.1 92.9,107.5 94.3,108.1 C95.8,108.7 95,107.1 98.2,108.6 C101.5,110.1 104.3,110.5 104.3,110.5 L99.9,106.5 C99.9,106.5 97.6,106.1 101.8,105.8 C106,105.5 109.5,106 110.1,104 C110.7,102.1 111,100.6 111,100.6 C111,100.6 104.4,100.3 100.7,98.4 C97,96.4 93.2,93.8 93.2,93.8 C93.2,93.8 97,94.4 98.1,93.3 C99.2,92.3 99.5,91.3 99.5,91.3 C99.5,91.3 89.2,89.7 88.6,90 C88,90.3 83.8,90.3 83.8,90.3 L83.8,86.9 L79.7,86.1 C79.7,86.1 79.2,85.9 78.4,85.6 C78.4,85.2 78.3,84.7 78.1,84 C77.5,81.6 77.1,80.5 77.1,80.5 C77.1,80.5 80.8,81.4 82.7,82.2 C84.5,83 85.7,84.3 87.5,84.3 C89.3,84.3 93.5,84.1 94.5,84.1 C95.5,84.1 98.1,84 98.1,84 C98.1,84 99.6,84.1 96.5,83 C93.4,81.9 93.4,82 90.8,80.7 C88.2,79.5 93.3,77.2 93.6,77.2 C93.9,77.2 95.7,74.8 95.7,74.8 C95.7,74.8 85.9,75.7 84.1,75.6 C82.3,75.5 77.8,73.5 77.8,73.5 L73.1,70.6 C72.9,68.1 72.8,65.6 72.7,63.3 L73.1,63.9 C73.1,63.9 74.5,65.8 74.9,66.3 C75.3,66.8 77.8,69.8 78.8,70.4 C79.9,71 81.1,71.8 81.1,71.8 C81.1,71.8 77.8,67.3 77.8,66.8 C77.8,66.3 75.7,65.5 77.8,66.3 C79.9,67.1 83.2,68.8 86.3,69.2 C89.4,69.6 90.9,69.9 92.1,69.8 C93.2,69.7 92.8,69.8 93.8,68.8 C94.8,67.8 95.5,68.5 94.8,67.8 C94.2,67.1 86.7,66.8 83.4,64.8 C80.1,62.8 78.1,61.9 77.4,60.7 C76.7,59.5 73.7,59.6 76.7,59.5 C79.7,59.4 82.2,59.3 82.5,59.3 C82.8,59.3 81.2,57 81.2,57 C81.2,57 86.5,59.2 86.8,59.2 C87.1,59.2 89.3,58.7 90.4,57.8 C91.4,56.9 93.1,55.5 93.1,55.5 C93.1,55.5 86.4,53.2 84.9,53.4 C83.4,53.6 82.2,53.9 80.4,53.7 C78.6,53.5 78.1,54.7 75.4,53.3 C75.3,53.3 75.3,53.2 75.2,53.2 C77.6,51.8 81.6,49.4 83.2,48.8 C85.4,48.1 91,46.1 91,46.1 L80.4,44.1 C80.4,44.1 80.2,44.7 77.1,45.7 C74,46.7 74,46.7 74,46.7 C74,46.7 74,42.6 76.2,41.7 C78.4,40.7 84.8,37.1 84.8,37.1 L88.4,34.4 C88.4,34.4 83.6,33.6 81.4,34.1 C79.2,34.5 76.3,35.3 75.2,35.9 C74.1,36.5 73.6,35.4 73.6,35.4 L73.3,31.5 L77.6,26.7 L77.4,23.8 L73.8,25.5 L74,21.6 L73.9,19.6 L72,19.7 C72,19.7 71.9,21 72,21.8 C72.1,22.6 72.1,25 72,25.6 C71.9,26.1 70.6,25.7 70.6,25.7 L71,15.4 L67.3,0.5 C67.3,0.5 66.3,-0.7 67.4,2.4 C68.5,5.5 66.8,10.6 66.8,10.6 L66.7,16 C66.7,16 66.4,21.4 66.5,22.8 C66.6,24.1 66.4,28.8 66.4,28.8 L67.7,34.1 L62.9,27.6 L58.7,24.6 L61.5,31.5 L69.7,38.6 L69.7,38.6 L60.9,36.4 L63.9,40.3 L66.6,48 C66.6,48 68.5,48.1 69.4,48.2 C69.4,48.4 69.4,48.5 69.4,48.7 C67.2,49.3 59.9,44.1 59.9,44.1 L53.7,44.2 L60.2,47.8 L62.4,51.7 L68.2,52.1 L66.2,53.4 L61.8,55 L57.7,56.5 C57.7,56.5 53.6,57.2 52.6,57.4 C51.6,57.6 49.4,57.5 49.4,57.5 C49.4,57.5 50.3,58.8 51.2,58.9 C52.1,59 55.9,60 56.5,59.8 C57.1,59.6 58.4,59.2 58.4,59.2 L57.6,61.8 C57.6,61.8 58.3,60.3 61.1,59.8 C64,59.3 65,57 65.6,56.2 C66.2,55.4 66.9,54.7 66.9,54.7 L61.2,62.9 L55.8,66.6 L51.5,67.9 C51.5,67.9 53,68.4 54.5,68.5 C56,68.6 58.6,69.2 58.7,68.4 C58.8,67.6 59.1,67.7 58.6,69.2 C58.1,70.8 58,72.1 58,72.1 C58,72.1 61.6,69.2 62.5,67.7 C63.3,66.2 64.4,64.4 64.4,64.4 L65.4,70.4 L61.6,72.9 C61.6,72.9 59.4,74.9 58.5,75 C57.6,75.2 53.7,77.2 53,77.7 C52.3,78.3 48.3,78.6 48.3,78.6 C48.3,78.6 46,78.8 46.8,79.1 C47.6,79.5 51.6,81.6 51.9,81.6 C52.2,81.6 55.8,80.6 56.2,80.5 L51.6,83.3 L49,88.5 L47,92.5 C47,92.5 47.7,91.8 50.9,89.5 C54.1,87.2 54.8,89.6 56.9,86.9 C58.9,84.1 60.1,82.8 60.2,82.2 C60.2,81.6 60.4,84.9 60.4,84.9 C60.4,84.9 60.5,85.8 60.5,86.4 C60.4,84.9 62.9,80.9 62.8,80.2 C62.8,79.5 63,78.8 63,78.8 C63,78.8 64.2,84.2 64.3,82.4 C64.3,80.6 64.4,77.1 64.6,76.8 C64.8,76.5 66.3,77.4 66.3,77.4 L67.6,77 C67.6,77 69.1,77.2 69.3,77.6 C69.3,77.6 69.3,77.6 69.3,77.6 C69.3,79.6 69.3,81.7 69.3,83.9 C68.3,84 67.4,84 67.4,84 C67.4,84 66.4,83.8 64.3,84.9 C62.2,86 58,88.8 57,89.5 C56,90.1 53.7,92.2 53.7,92.2 L55.3,92.1 L52.1,94.5 L50.1,96.9 L49.4,97.9 L51.6,98.8 L44.1,103.6 L44.2,105.2 L47.1,106 L41.6,112.2 C41.6,112.2 40.9,113.7 40.4,114.7 C39.9,115.7 39.5,117.1 39.5,117.1 L44.3,113.7 L46.3,111.9 L46.9,116.1 C46.9,116.1 48.8,114.5 49,113.5 C49.2,112.5 50.4,110.4 50.4,110.4 C50.4,110.4 52.7,111.1 52.8,112.5 C52.9,114 53.1,117.6 53.1,117.6 C53.1,117.6 54.2,115.5 54.4,115.1 C54.6,114.7 56.7,111.7 57.1,110.3 C57.6,108.9 57.9,107.7 57.9,107.7 L59.9,112.2 C59.9,112.2 60.5,114.5 61.1,110.9 C61.7,107.3 62.6,104.4 62.6,104.4 L64.8,107.4 L66.1,104.9 L69.4,102 C69.4,105.1 69.5,108.3 69.5,111.6 C65.9,113.6 61.3,116.3 60.9,117.2 C60.1,118.7 55.6,119.3 55.6,119.3 L53.7,122.1 L45.2,124 L49.2,126.2 C49.2,126.2 40.6,129.8 39.1,130.4 C37.6,131 35.6,132 34.9,132.8 C34.3,133.7 47.6,131.9 47.6,131.9 L46.5,136 L35.6,143 C35.6,143 38.5,142.8 42.5,140.9 C46.5,139 47.3,140.6 48.6,140.5 C50,140.4 54.6,135 54.6,135 L55.7,137.4 L60,136.6 L65.8,130.5 L66.1,134.3 L70,132.3 L70,132.3 C70,133.6 70.1,134.9 70.1,136.3 L62.2,142.1 L62.3,144.1 L57.5,148.1 C57.5,148.1 53.1,149.2 52.5,150.5 C51.9,151.8 43.6,155.2 43.6,155.2 L48.5,156.7 L37,164.1 C37,164.1 27.6,165.5 34.7,165.1 C41.8,164.7 46.3,163.1 42.6,164.6 C38.9,166.1 29,172 29,172 L25,173.1 L32.5,172.6 C32.5,172.6 33.5,172.5 31.7,175.9 C29.9,179.3 25.9,186 25.9,186 C25.9,186 42,177.2 39.9,178.6 C37.8,180 34.3,194.8 35.1,195.6 C35.8,196.4 44.1,185.7 44.1,185.7 L45,198.6 C45,198.6 50.1,184.4 50.9,183.6 C51.4,183.1 52.2,185.5 52.9,187.6 L50.9,188.6 L52.7,195.3 C52.7,195.3 49.3,198.8 48.5,200.2 C47.7,201.6 49.4,201.8 45.4,204.2 C41.4,206.6 36.1,209.2 36.1,209.2 L23.6,212.7 L26.4,213.6 L28,215.4 L20.5,217.8 C20.5,217.8 21,218.6 23.1,218.7 C25.2,218.8 30.8,218.5 30.8,218.5 L10.8,225.5 L17.8,228.8 L24,230 L13.7,232.6 L11.6,238.2 C11.6,238.2 19.4,238.8 22.1,238.6 C24.8,238.4 29.5,238.6 29.5,238.6 C29.5,238.6 21.3,250 24.5,247.3 C27.7,244.6 36.4,238.1 36.4,238.1 C36.4,238.1 36.9,241.6 37.8,241.8 C38.7,242 43.2,236 43.7,233.5 C44.2,231 44.2,218.6 44.7,229.6 C45.2,240.7 45.2,240.7 45.2,240.7 L51.9,224.8 L52.7,236.4 C52.7,236.4 53.4,236.9 54.4,236.6 L54.1,236.8 C54.1,236.8 46.9,237.8 54.2,238.4 C61.5,239 33.5,250.9 33.5,250.9 L41.2,250.4 C41.2,250.4 43.4,255.4 38.5,257.1 C33.6,258.8 24.8,263.2 27.1,263 C29.4,262.8 38.2,262.3 38.2,262.3 L14,271 L17.4,274.6 C17.4,274.6 23.6,273.6 25.9,273.1 C23,274.4 14.6,281.3 14.6,281.3 C14.6,281.3 7.2,282.1 4.3,283.1 C1.4,284.1 0.4,285.5 1.1,286.3 C1.8,287.1 19.7,286.4 19.7,286.4 L8.2,294.2 C8.2,294.2 12,293.7 13.2,293.9 C14.3,294.1 13.2,297.2 13.2,297.2 L6,307.8 C6,307.8 24.6,300.5 26.2,297.4 C27.8,294.3 31.5,288.6 31.5,288.6 C31.5,288.6 22.8,311.9 27.5,307.6 C32.2,303.2 32.7,297.5 33.5,296.6 C34.2,295.7 40.8,284.5 40.8,284.5 C40.8,284.5 38.8,304.7 40.9,302.1 C43,299.5 46.3,293.6 47.6,289.5 C48.9,285.4 51.2,276 51.2,276 L55.2,291.4 C55.2,291.4 60.2,288.6 60.3,283.5 C60.4,278.3 61.3,271.8 61.3,271 C61.3,270.4 62.7,285.8 63.8,293 C59.8,296.4 56.1,299.8 55.7,301 C54.8,303.7 47.7,306.1 47.7,306.1 L45.3,311.2 L32.3,317 L39.1,319.2 C39.1,319.2 26.3,327.6 24,329.1 C21.7,330.6 18.7,332.8 17.9,334.3 C17.1,335.9 37.8,328.9 37.8,328.9 L37,335.9 L21.2,350.5 C21.2,350.5 25.8,349.3 31.7,345 C37.6,340.7 39.2,343 41.3,342.4 C43.4,341.8 49.5,331.6 49.5,331.6 L51.8,335 L58.4,332.3 L66.3,320.7 L67.5,326.7 L69.3,325.3 L73.9,328 L64,330.8 L64.8,336.8 C64.8,336.8 61.4,339.2 60.6,340.3 C59.7,341.4 61.2,341.8 57.5,343.2 C53.8,344.6 48.9,345.9 48.9,345.9 L37.7,346.9 L40,348.1 L41.2,349.9 L34.5,350.7 C34.5,350.7 34.8,351.5 36.6,351.9 C38.4,352.4 43.3,353 43.3,353 L25,355 L30.7,359 L35.9,361.1 L26.7,361.6 L24.2,366 C24.2,366 30.9,367.8 33.2,368.1 C35.6,368.4 39.6,369.4 39.6,369.4 C39.6,369.4 31.2,377.8 34.3,376.1 C37.4,374.4 45.7,370.2 45.7,370.2 C45.7,370.2 45.7,373.3 46.5,373.6 C47.3,373.9 51.9,369.5 52.5,367.5 C53.2,365.5 54.7,354.8 53.9,364.4 C53.1,374 53.1,374 53.1,374 L60.7,361.5 L60,371.6 C60,371.6 62.8,374.1 64.8,367.9 C66.8,361.8 69.4,359.5 69.6,356 C69.5,357.9 69.1,363.3 69.1,363.3 C69.1,363.3 70.5,363.7 72.5,357.6 C74.5,351.5 76.1,345.7 76.1,345.7 C76.1,345.7 76.2,355.6 76.7,354.8 C76.9,354.5 77.4,354.2 78,353.8 C78.8,370.7 79.6,388.5 80.5,407.2 C81,460.8 71.3,477.3 60.1,478.1 C102.9,475.2 114.1,474.5 117.1,474.3 C113,474.1 98.2,469.2 94.1,407.6 C93.3,395 92,375.1 90.5,350.8 L93.1,355.9 L96.5,352.7 L103.9,366.7 C103.9,366.7 110.7,381.1 110.4,379.6 C109.2,371.4 108.6,368 108.6,368 C108.6,368 119,381.4 121.2,381.9 C123.4,382.4 132.8,389.7 124.6,381.6 C116.4,373.5 106.6,359.3 110.9,363.1 C115.2,366.9 125.3,376.7 130.6,377.6 C135.9,378.5 148.3,387.4 137.5,378 C126.7,368.6 119.3,360.9 119.3,360.9 C119.3,360.9 141.5,368.9 142.7,367.3 C143.9,365.8 138.6,360.4 138.6,360.4 C138.6,360.4 123.9,351.2 124.7,350.9 C125.5,350.5 147.1,343.7 147.1,343.7 C147.1,343.7 136.3,338.3 134.1,339 C131.9,339.7 133.4,341 125.3,339.3 C117.2,337.6 116.4,338.4 110.2,335.5 C105.3,333.2 93.4,324.8 88.5,321.3 C88.5,320.7 88.4,320.1 88.4,319.5 C89,320.2 89.6,320.8 89.9,321 C91.2,322 90.2,315.1 90.2,315.1 C90.2,315.1 92.2,317.3 95.8,320.3 C99.4,323.4 105.1,328.6 105.1,328.6 L102.3,318.6 C102.3,318.6 104.2,320.3 109.1,327.6 C114,334.8 122.5,332.5 122.5,332.5 L118.4,323.7 C118.4,323.7 124.5,327.5 124.6,329.2 C124.8,331 131.6,331.4 142.5,336.5 C153.4,341.7 148.5,337.6 148.5,337.6 L135.7,319.9 L145.3,321.8 L158.5,326.3 C158.5,326.3 145.2,315 139.8,312.4 C139.8,312.4 157.7,309.8 160,308.3 C162.2,306.8 153.3,307.4 153.3,307.4 Z M69.6,355.4 C69.6,355 69.6,355 69.6,355.4 L69.6,355.4 Z M94.8,221.7 L81.8,211.1 C81.6,208.1 81.4,205.1 81.2,202 L87.2,210.7 L90.5,206.3 L101,220.6 C101,220.6 103.4,224.2 105.7,227.6 L93.2,223.3 L96.9,221.4 L94.8,221.7 Z M94.1,267.8 C93.5,268.1 89.3,268.1 89.3,268.1 L89.3,264.7 L85.2,263.9 C85.2,263.9 85.1,263.9 85,263.8 C84.9,261.8 84.8,259.8 84.6,257.7 C86.3,258.3 88.9,243.4 88.9,243.4 C88.9,243.4 90.5,247.1 91.3,249.2 C92.1,251.3 94,262 94,262 L96.7,248 C96.7,248 99.1,253 100.2,256.2 C101,258.4 102.6,265.1 103.5,268.8 C100.8,268.4 94.6,267.6 94.1,267.8 Z M115.1,278.3 C113,278.1 108.8,277.6 106.2,276.2 C102.5,274.2 98.7,271.6 98.7,271.6 C98.7,271.6 102.5,272.2 103.6,271.1 C103.8,271 103.9,270.8 104,270.7 C104.1,271.2 104.2,271.5 104.2,271.5 L104.4,270.2 C104.9,269.6 105,269.1 105,269.1 C105,269.1 104.9,269.1 104.6,269 L107.1,255 C107.1,255 110.8,266.1 113.4,273.8 C114.1,275.7 114.6,277.1 115.1,278.3 Z M109.6,233.1 C105.5,232 101.5,230.8 101,230.5 C100,229.8 103.8,227.9 103.8,227.9 L105.8,227.8 C107.3,229.9 108.7,232 109.6,233.1 Z M83.5,164.4 L86.1,172.2 L88.5,172 L96.5,181.4 C90.9,179.1 84.1,176 79.6,173.8 C79.3,169.5 79.1,165.1 78.8,160.9 C81.1,162.4 83.5,164.4 83.5,164.4 Z M76.2,83.9 C76.4,84.1 76.5,84.3 76.6,84.4 C75.6,84.1 74.7,83.7 74,83.5 C74,82.8 73.9,82.1 73.9,81.3 L74.1,81.7 C74.1,81.8 73.9,81.1 76.2,83.9 Z M66.1,69.7 C66.2,68.8 66.4,67.9 66.5,67.4 C66.9,66.2 67.4,63.5 67.8,63.3 C68.2,63.2 68.5,63.7 68.5,63.7 C68.5,63.7 69.2,64.7 69.2,63 L69.2,63 C69.2,64.5 69.2,66.1 69.2,67.7 L66.1,69.7 Z M59.1,167.8 C60,166.1 62.1,168.8 62.1,168.8 C62.1,168.8 64.5,167.4 65.1,165.6 L70.8,167.1 C70.9,169 70.9,171 71,173 L55.7,180.6 L61.5,182.7 L54.3,186.2 C55.7,180.4 58.5,169.1 59.1,167.8 Z M55.9,235 C56.5,234.2 57.1,232.8 57.5,230.7 C58.8,223.3 61.3,220.1 61.1,216.1 C61.3,218.3 61.7,224.5 61.7,224.5 C61.7,224.5 63.3,224.7 64.6,217.3 C65.9,209.9 66.8,203.1 66.8,203.1 C66.8,203.1 68.5,214.4 68.8,213.3 C69.2,212.2 72.2,211.2 72,206.3 C72,206.3 72,206.3 72,206.3 C72,207.1 72.1,207.9 72.1,208.8 L66,222.7 L68,222.6 L64.1,229.4 L55.9,235 Z M70.7,279.1 C71.8,275.5 71.5,264.1 71.2,258.8 C71,256.2 72.5,258.9 74.1,262.4 C74.4,269.1 74.6,276 74.9,283.1 L74.8,283.1 C74.8,283.1 71.4,285.8 67.5,289 C68.7,285.2 70.1,281 70.7,279.1 Z M69.6,324.3 L73.2,321.5 L75.5,304 C75.5,304 75.6,304.2 75.8,304.5 C76,310.3 76.3,316.2 76.6,322.3 L69.6,324.3 Z" id="XMLID_150_"></path>
                </g>
                <g id="XMLID_177_" transform="translate(1375.300000, 40.000000)">
                    <path d="M77.8,406.5 C77.8,406.5 77.8,406.5 76.9,406.4 C77.4,406.5 77.8,406.5 77.8,406.5 Z" id="XMLID_192_"></path>
                    <path d="M128.5,270.6 C128.5,270.6 118.7,267.3 111.8,265.5 C105,263.7 98.7,262.2 98.7,262.2 L105.9,258.8 L92.3,257.8 L94.6,252.7 L87,253.6 L75.2,249.2 L75.1,247.2 L73.4,247.4 C73.6,244.7 73.8,242 74.1,239.3 C74.3,239.7 74.5,240.1 74.6,240.3 C74.9,241.4 75.2,241.8 76.4,242.7 C77.6,243.6 79.9,245.4 79.9,245.4 L79.7,241.8 C79.7,241.8 84,245.4 85.2,246 C86.4,246.7 85.9,245.2 88.5,246.9 C91.1,248.5 93.4,249.2 93.6,249.2 L90.4,245.3 C90.4,245.3 88.5,244.7 92.1,245 C95.7,245.3 98.7,246.1 99.4,244.5 C99.6,244 99.8,243.6 100,243.2 C100.6,244.9 101,245.3 101,245.3 L110.5,258.5 L112.9,248.3 C112.9,248.3 114.9,253.3 119.3,260.8 C123.7,268.3 123.2,263.6 123.2,263.6 L124.7,254.9 C124.7,254.9 131.8,263.1 133.4,265 C135,267 144.2,263.7 144.2,263.7 L128.6,243.4 L134,248.2 L128.2,233.9 C128.2,233.9 130.5,235 134.7,236.9 C138.9,238.8 139.6,237 139.6,237 L120.7,223.3 C120.7,223.3 124.9,223.2 130.2,222.6 C130.2,222.6 113.7,216.3 113.2,214.8 C112.7,213.4 123.8,213.3 123.8,213.3 C123.8,213.3 121.4,213.1 120.9,213.1 C120.3,213.1 108.1,209.8 104.5,208.4 C100.9,207 107.6,208.6 110,206.7 C112.3,204.8 108.1,205.6 108.1,205.6 C108.1,205.6 104.7,204.2 101.1,202.7 C100,195.1 99.5,192 99.5,192 C99.5,192 109.8,204.5 111.9,204.9 C114,205.3 123.4,212 115.3,204.5 C107.2,197 97.5,183.5 101.8,187.1 C106.1,190.7 116,199.7 121.3,200.4 C126.6,201 138.8,209.1 128.2,200.5 C117.6,191.8 110.3,184.6 110.3,184.6 C110.3,184.6 132.4,191.4 133.5,189.8 C134.7,188.3 129.5,183.3 129.5,183.3 C129.5,183.3 114.9,175 115.7,174.6 C116.5,174.2 138,166.6 138,166.6 C138,166.6 127.3,161.9 125.1,162.6 C122.9,163.3 124.4,164.6 116.4,163.3 C108.4,162 107.5,162.9 101.4,160.3 C100.3,159.8 98.8,159.1 97.2,158.2 L97.8,150.7 L106.5,159 C106,154.1 103.7,150.8 103.7,150.8 C103.7,150.8 116.7,157.3 120,156.5 C123.3,155.7 127.4,152.9 127.4,152.9 C114.6,150.2 107.2,149.6 111.5,147.9 C115.8,146.2 127.4,140.8 122.2,140.1 C116.9,139.4 113.7,142.6 107.9,136.9 C102.1,131.3 92.4,126.4 91.9,124.6 C91.6,123.5 87.6,120 84.5,117.4 C84.7,114.9 84.9,112.3 85.1,109.8 C86.2,112.1 87,114.3 87.4,114.8 C87.9,115.5 88.4,111.9 88.4,111.9 C88.4,111.9 89.1,113.3 90.5,115.5 C91.9,117.7 94,121.3 94,121.3 L94,115.8 C94,115.8 94.7,117 96.1,121.5 C97.5,126 102.2,126.4 102.2,126.4 L101.4,121.3 C101.4,121.3 103.9,124.3 103.8,125.2 C103.6,126.1 107.1,127.5 111.9,132 C116.7,136.5 114.8,133.6 114.8,133.6 L110.8,122.5 L115.4,125.2 L121.5,129.8 C121.5,129.8 116.4,121.8 114,119.5 C114,119.5 123.5,121.4 124.9,121 C126.3,120.6 121.7,119.4 121.7,119.4 C121.7,119.4 116,116.2 112,114.3 C108,112.4 104.3,110.7 104.3,110.7 L109,109.4 L100.8,107.2 L102.6,104.3 L97.9,103.9 L91.1,99.8 L91.2,98.5 L87.7,98.2 L89.2,96.9 L86.2,94.1 C86.3,92.7 86.4,91.3 86.5,89.9 L86.7,90.1 L88.4,90.3 L88.1,85.5 C88.1,85.5 87.3,81.7 88.3,82.7 C89.3,83.7 91.8,87.7 92.1,88.8 C92.4,89.9 92.7,90.3 93.9,91.2 C95.1,92.1 97.4,93.9 97.4,93.9 L97.2,90.3 C97.2,90.3 101.5,93.9 102.7,94.5 C103.9,95.2 103.4,93.7 106,95.4 C108.6,97.1 111.1,97.7 111.1,97.7 L107.8,93.8 C107.8,93.8 105.9,93.2 109.5,93.5 C113.1,93.8 116.1,94.6 116.8,93 C117.5,91.4 118,90.2 118,90.2 C118,90.2 112.4,89.2 109.4,87.1 C106.5,85 103.5,82.3 103.5,82.3 C103.5,82.3 106.7,83.2 107.8,82.5 C108.9,81.8 109.3,81 109.3,81 C109.3,81 100.6,78.4 100.1,78.6 C99.5,78.8 95.9,78.3 95.9,78.3 L96.3,75.4 L92.8,74.2 C92.8,74.2 92.4,74 91.7,73.6 C91.7,73.2 91.7,72.8 91.6,72.3 C91.4,70.2 91.2,69.2 91.2,69.2 C91.2,69.2 94.3,70.4 95.8,71.3 C97.3,72.2 98.2,73.5 99.7,73.7 C101.2,73.9 104.8,74.3 105.7,74.4 C106.6,74.6 108.8,74.7 108.8,74.7 C108.8,74.7 110,75 107.5,73.7 C105,72.4 105,72.5 102.9,71.1 C100.8,69.7 105.5,68.4 105.8,68.5 C106.1,68.5 107.9,66.8 107.9,66.8 C107.9,66.8 99.3,66.3 97.8,66 C96.3,65.7 92.7,63.4 92.7,63.4 L89,60.4 C89.2,58.2 89.4,56.2 89.5,54.2 L89.8,54.7 C89.8,54.7 90.8,56.5 91,57 C91.3,57.5 93,60.3 93.9,60.9 C94.7,61.6 95.7,62.3 95.7,62.3 C95.7,62.3 93.4,58.1 93.5,57.7 C93.5,57.3 91.8,56.4 93.5,57.3 C95.2,58.2 97.8,60.1 100.4,60.8 C103,61.5 104.3,62 105.3,62 C106.3,62.1 105.9,62 106.9,61.3 C107.9,60.6 108.4,61.2 107.9,60.6 C107.4,60 101.1,58.8 98.5,56.7 C95.9,54.6 94.3,53.6 93.9,52.5 C93.5,51.4 90.9,51.1 93.5,51.4 C96.1,51.7 98.3,51.9 98.5,52 C98.7,52 97.7,49.9 97.7,49.9 C97.7,49.9 102,52.4 102.2,52.4 C102.4,52.4 104.4,52.3 105.4,51.7 C106.4,51.1 108,50.1 108,50.1 C108,50.1 102.5,47.3 101.2,47.3 C99.9,47.3 98.8,47.4 97.3,47 C95.8,46.6 95.2,47.5 93.1,46.1 C93.1,46.1 93,46 93,46 C95.3,45.1 99,43.5 100.4,43.3 C102.4,43 107.4,42 107.4,42 L98.5,39 C98.5,39 98.3,39.4 95.5,39.9 C92.7,40.4 92.7,40.4 92.7,40.4 C92.7,40.4 93.2,37 95.2,36.4 C97.2,35.9 103.1,33.5 103.1,33.5 L106.6,31.7 C106.6,31.7 102.6,30.5 100.6,30.6 C98.6,30.7 96,30.9 95,31.3 C94,31.7 93.7,30.7 93.7,30.7 L93.9,27.3 L98.2,23.8 L98.4,21.3 L95.1,22.3 L95.7,19.1 L95.8,17.4 L94.2,17.3 C94.2,17.3 94,18.4 93.9,19.1 C93.8,19.8 93.6,21.8 93.4,22.3 C93.2,22.7 92.2,22.2 92.2,22.2 L93.8,13.6 L92.4,0.6 C92.4,0.6 91.7,-0.5 92.3,2.2 C92.9,4.9 90.8,9 90.8,9 L90.1,13.6 C90.1,13.6 89.2,18.1 89.1,19.3 C89,20.4 88.3,24.3 88.3,24.3 L88.7,28.9 L85.4,22.9 L82.2,19.9 L83.8,26 L90,33 L90,33 L82.7,30.1 L84.8,33.7 L86.2,40.5 C86.2,40.5 87.8,40.8 88.6,41 C88.6,41.1 88.6,41.3 88.5,41.4 C86.5,41.6 80.9,36.3 80.9,36.3 L75.5,35.7 L80.6,39.6 L82,43.2 L87,44.2 L85.1,45.1 L81.1,45.9 L77.4,46.7 C77.4,46.7 73.8,46.8 72.9,46.8 C72,46.8 70.1,46.5 70.1,46.5 C70.1,46.5 70.8,47.7 71.5,47.9 C72.2,48.1 75.4,49.4 75.9,49.3 C76.4,49.2 77.6,49 77.6,49 L76.6,51.1 C76.6,51.1 77.4,49.9 79.9,49.9 C82.4,49.8 83.6,48 84.2,47.4 C84.8,46.8 85.5,46.3 85.5,46.3 L79.6,52.5 L74.5,55 L70.6,55.6 C70.6,55.6 71.8,56.2 73.1,56.5 C74.4,56.8 76.5,57.6 76.7,56.9 C76.9,56.2 77.1,56.3 76.5,57.6 C75.9,58.9 75.7,60 75.7,60 C75.7,60 79.2,58 80.1,56.9 C81,55.8 82.1,54.4 82.1,54.4 L82.2,59.6 L78.6,61.2 C78.6,61.2 76.5,62.6 75.7,62.6 C74.9,62.6 71.3,63.8 70.6,64.2 C69.9,64.6 66.4,64.4 66.4,64.4 C66.4,64.4 64.4,64.2 65,64.6 C65.6,65 68.8,67.3 69.1,67.3 C69.4,67.3 72.6,67 72.9,66.9 L68.6,68.7 L65.7,72.7 L63.5,75.8 C63.5,75.8 64.2,75.3 67.2,73.7 C70.2,72.1 70.6,74.3 72.6,72.2 C74.7,70.1 75.9,69.2 76,68.7 C76.1,68.2 75.8,71 75.8,71 C75.8,71 75.7,71.8 75.7,72.3 C75.8,71 78.4,67.9 78.4,67.3 C78.4,66.7 78.8,66.1 78.8,66.1 C78.8,66.1 79.2,70.8 79.4,69.3 C79.7,67.8 80.1,64.9 80.4,64.6 C80.6,64.4 81.8,65.3 81.8,65.3 L82.9,65.1 C82.9,65.1 84.2,65.5 84.3,65.8 C84.3,65.8 84.3,65.8 84.3,65.8 C84.1,67.5 83.8,69.3 83.6,71.1 C82.7,71 82,71 82,71 C82,71 81.1,70.7 79.2,71.4 C77.3,72.1 73.3,73.9 72.4,74.3 C71.5,74.7 69.2,76.1 69.2,76.1 L70.6,76.2 L67.5,77.8 L65.5,79.6 L64.8,80.4 L66.6,81.5 L59.5,84.7 L59.4,86.1 L61.8,87.1 L56.3,91.6 C56.3,91.6 55.5,92.8 55,93.6 C54.4,94.4 54,95.5 54,95.5 L58.5,93.2 L60.5,92 L60.5,95.6 C60.5,95.6 62.4,94.5 62.6,93.7 C62.9,92.9 64.2,91.3 64.2,91.3 C64.2,91.3 66.1,92.1 66,93.4 C65.9,94.7 65.7,97.8 65.7,97.8 C65.7,97.8 66.9,96.2 67.1,95.8 C67.3,95.5 69.5,93.2 70,92.1 C70.6,91 71.1,90 71.1,90 L72.3,94 C72.3,94 72.6,96 73.5,93.1 C74.4,90.2 75.6,87.8 75.6,87.8 L77.2,90.6 L78.6,88.7 L81.8,86.6 C81.5,89.2 81.1,91.9 80.7,94.7 C77.3,96 73.1,97.6 72.6,98.3 C71.7,99.5 67.8,99.4 67.8,99.4 L65.8,101.6 L58.3,102.2 L61.4,104.5 C61.4,104.5 53.6,106.4 52.2,106.8 C50.8,107.2 49,107.7 48.3,108.3 C47.7,108.9 59.3,109.1 59.3,109.1 L57.9,112.4 L47.7,116.9 C47.7,116.9 50.3,117.1 53.9,116 C57.5,114.9 58,116.3 59.2,116.4 C60.4,116.5 65,112.5 65,112.5 L65.7,114.6 L69.5,114.4 L75.3,110 L75.1,113.2 L78.7,112 L78.7,112 C78.6,113.1 78.4,114.2 78.3,115.4 L70.8,119.3 L70.7,121 L66,123.8 C66,123.8 62.1,124.2 61.4,125.2 C60.7,126.2 53.2,128 53.2,128 L57.2,129.9 L46.4,134.7 C46.4,134.7 38.1,134.8 44.3,135.2 C50.5,135.7 54.5,134.9 51.1,135.7 C47.7,136.5 38.5,140.3 38.5,140.3 L34.9,140.7 L41.4,141.2 C41.4,141.2 42.3,141.3 40.3,143.9 C38.3,146.5 34.1,151.7 34.1,151.7 C34.1,151.7 49,146.3 47,147.2 C45,148.1 40.2,160.2 40.8,160.9 C41.3,161.6 49.7,153.6 49.7,153.6 L48.9,164.6 C48.9,164.6 55,153.3 55.8,152.7 C56.3,152.3 56.7,154.5 57,156.3 L55.1,156.9 L55.8,162.7 C55.8,162.7 52.4,165.2 51.6,166.3 C50.7,167.4 52.2,167.7 48.5,169.3 C44.8,170.9 39.9,172.3 39.9,172.3 L28.7,173.8 L31,174.9 L32.2,176.6 L25.5,177.7 C25.5,177.7 25.8,178.4 27.6,178.8 C29.4,179.2 34.3,179.5 34.3,179.5 L16.3,183 L21.9,186.7 L27.1,188.5 L17.9,189.4 L15.4,193.8 C15.4,193.8 22,195.2 24.4,195.4 C26.8,195.6 30.7,196.3 30.7,196.3 C30.7,196.3 22.2,204.9 25.3,203 C28.4,201.2 36.6,196.7 36.6,196.7 C36.6,196.7 36.6,199.7 37.3,200 C38.1,200.3 42.7,195.8 43.4,193.8 C44.1,191.8 45.7,181.3 44.8,190.7 C43.9,200.1 43.9,200.1 43.9,200.1 L51.6,187.5 L50.8,197.4 C50.8,197.4 51.4,197.9 52.2,197.8 L51.9,197.9 C51.9,197.9 45.6,197.9 51.8,199.3 C58,200.7 32.4,207.3 32.4,207.3 L39.1,207.8 C39.1,207.8 40.3,212.3 35.9,213.1 C31.5,213.9 23.4,216.5 25.4,216.7 C27.4,216.8 35,217.4 35,217.4 L13.1,221.7 L15.6,225.1 C15.6,225.1 21.1,225 23.1,224.9 C20.5,225.6 12.4,230.4 12.4,230.4 C12.4,230.4 5.9,230.1 3.3,230.6 C0.7,231.1 -0.4,232.2 0.2,232.9 C0.7,233.6 16.2,235.3 16.2,235.3 L5.3,240.5 C5.3,240.5 8.7,240.5 9.6,240.8 C10.5,241.1 9.2,243.5 9.2,243.5 L1.7,251.5 C1.7,251.5 18.6,247.6 20.4,245.2 C22.2,242.8 26,238.5 26,238.5 C26,238.5 15.7,257.1 20.3,254 C24.9,250.9 26,246.1 26.8,245.5 C27.5,244.9 34.5,236.2 34.5,236.2 C34.5,236.2 30.3,252.9 32.4,251 C34.5,249.1 38.1,244.5 39.7,241.2 C41.3,237.9 44.4,230.3 44.4,230.3 L45.9,243.8 C45.9,243.8 50.6,242.1 51.3,237.8 C52,233.5 53.6,228.1 53.7,227.4 C53.7,226.9 53.1,240 53.2,246.2 C49.3,248.6 45.8,251 45.3,251.9 C44.2,254.1 37.8,255.2 37.8,255.2 L35.1,259.2 L23.2,262.4 L28.7,265.1 C28.7,265.1 16.6,270.6 14.5,271.6 C12.3,272.6 9.5,274 8.7,275.3 C7.9,276.6 26.5,273.2 26.5,273.2 L25,279 L9.7,289.4 C9.7,289.4 13.8,288.9 19.4,286 C25,283.1 26.1,285.2 28,285 C29.9,284.8 36.4,276.9 36.4,276.9 L37.9,280.1 L43.9,278.7 L52.1,269.9 L52.4,275.1 L54.2,274.1 L57.8,276.9 L48.9,278 L48.8,283.2 C48.8,283.2 45.6,284.8 44.7,285.6 C43.8,286.4 45.1,286.9 41.7,287.7 C38.3,288.4 34,288.9 34,288.9 L24.2,288.3 L26,289.6 L26.8,291.3 L20.9,291.2 C20.9,291.2 21.1,291.9 22.6,292.5 C24.1,293.1 28.2,294.2 28.2,294.2 L12.3,294.3 L16.7,298.4 L20.9,300.8 L12.9,300.1 L10.2,303.5 C10.2,303.5 15.7,305.8 17.7,306.3 C19.7,306.8 23,308.1 23,308.1 C23,308.1 14.7,314.2 17.6,313.1 C20.5,312 28.1,309.5 28.1,309.5 C28.1,309.5 27.7,312.1 28.3,312.5 C28.9,312.9 33.4,309.7 34.2,308.1 C35,306.5 37.7,297.6 35.8,305.6 C33.9,313.6 33.9,313.6 33.9,313.6 L42,304 L40.2,312.4 C40.2,312.4 42.3,314.8 44.8,309.9 C47.3,305 49.7,303.4 50.4,300.4 C50,302 49.1,306.5 49.1,306.5 C49.1,306.5 50.2,307 52.7,302.1 C55.2,297.2 57.2,292.6 57.2,292.6 C57.2,292.6 56.1,301 56.6,300.3 C56.8,300 57.3,299.9 57.8,299.6 C56.4,314 54.9,329 53.4,344.9 C47.3,390.1 36.9,402.8 27.2,402.1 C64.4,404.9 74.1,405.7 76.7,405.9 C73.2,405.3 61.1,399.3 65.1,346.9 C65.9,336.2 67.3,319.3 68.9,298.6 L70.5,303.2 L73.8,300.9 L78.4,313.6 C78.4,313.6 82.5,326.6 82.4,325.2 C82.3,318.1 82.3,315.2 82.3,315.2 C82.3,315.2 89.6,327.7 91.4,328.4 C93.2,329.1 100.4,336.4 94.4,328.6 C88.3,320.8 81.7,307.6 84.9,311.4 C88.1,315.2 95.6,324.6 100.1,326 C104.6,327.4 114.1,336.4 106,327.2 C97.9,318 92.5,310.5 92.5,310.5 C92.5,310.5 110.7,319.9 111.8,318.8 C113,317.7 109.2,312.5 109.2,312.5 C109.2,312.5 97.7,303 98.4,302.8 C99.2,302.6 118.5,299.5 118.5,299.5 C118.5,299.5 109.9,293.7 107.9,294 C105.9,294.3 107,295.6 100.3,293.2 C93.6,290.8 92.8,291.4 87.8,288.2 C83.9,285.7 74.7,277.1 70.9,273.6 C70.9,273.1 71,272.6 71,272.1 C71.5,272.8 71.8,273.3 72.1,273.6 C73.1,274.6 73.1,268.6 73.1,268.6 C73.1,268.6 74.5,270.7 77.3,273.7 C80.1,276.7 84.2,281.8 84.2,281.8 L83,273 C83,273 84.4,274.7 87.7,281.4 C91,288.1 98.7,287.2 98.7,287.2 L96.3,279.3 C96.3,279.3 101,283.2 101,284.7 C100.9,286.2 106.8,287.4 115.5,293.1 C124.2,298.8 120.5,294.8 120.5,294.8 L111.6,278.3 L119.6,281.1 L130.4,286.5 C130.4,286.5 120.4,275.4 116,272.5 C116,272.5 131.7,272.5 133.9,271.5 C136.2,271.2 128.5,270.6 128.5,270.6 Z M50.6,300.8 C50.7,300.4 50.7,300.5 50.6,300.8 L50.6,300.8 Z M88.7,191.3 L78.8,180.8 C79,178.2 79.2,175.7 79.4,173.1 L83.5,181.2 L86.9,177.9 L94.1,191.2 C94.1,191.2 95.7,194.5 97.3,197.7 L87.1,192.6 L90.5,191.5 L88.7,191.3 Z M82.5,230 C81.9,230.2 78.3,229.7 78.3,229.7 L78.7,226.8 L75.2,225.6 C75.2,225.6 75.1,225.6 75.1,225.5 C75.2,223.8 75.4,222.1 75.5,220.3 C76.9,221 81,208.8 81,208.8 C81,208.8 81.9,212.1 82.4,214 C82.8,215.9 83.1,225.1 83.1,225.1 L87.1,213.6 C87.1,213.6 88.5,218.1 89.1,220.9 C89.5,222.9 90.1,228.7 90.4,231.9 C88.1,231.4 82.9,229.9 82.5,230 Z M99.3,241.4 C97.5,241 94,240 91.9,238.5 C89,236.4 86,233.7 86,233.7 C86,233.7 89.2,234.6 90.3,233.9 C90.4,233.8 90.6,233.7 90.7,233.6 C90.7,234 90.8,234.3 90.8,234.3 L91.2,233.2 C91.7,232.7 91.8,232.4 91.8,232.4 C91.8,232.4 91.7,232.4 91.5,232.3 L95.4,220.8 C95.4,220.8 97.2,230.6 98.5,237.4 C98.7,239.1 99,240.4 99.3,241.4 Z M100,202.8 C96.6,201.4 93.3,199.9 93,199.5 C92.3,198.8 95.7,197.6 95.7,197.6 L97.4,197.7 C98.4,199.7 99.4,201.7 100,202.8 Z M86,141.6 L87.3,148.4 L89.4,148.6 L95.1,157.5 C90.6,154.9 85.1,151.4 81.5,149 C81.8,145.3 82.1,141.6 82.4,138 C84.2,139.7 86,141.6 86,141.6 Z M89.7,73 C89.8,73.2 89.9,73.3 90,73.5 C89.2,73.1 88.4,72.7 87.9,72.4 C88,71.8 88,71.2 88.1,70.6 L88.2,71 C88.1,71 88,70.3 89.7,73 Z M82.7,59.8 C82.9,59.1 83.1,58.3 83.4,57.9 C83.9,56.9 84.7,54.7 85.1,54.7 C85.5,54.6 85.7,55.1 85.7,55.1 C85.7,55.1 86.2,56 86.4,54.6 L86.4,54.6 C86.2,55.9 86,57.2 85.8,58.5 L82.7,59.8 Z M64.7,141.6 C65.7,140.3 67.2,142.8 67.2,142.8 C67.2,142.8 69.4,141.9 70.1,140.4 L74.8,142.3 C74.6,143.9 74.4,145.6 74.2,147.3 L60.1,151.8 L64.8,154.3 L58.2,156.4 C60.2,151.7 63.9,142.5 64.7,141.6 Z M53.6,197.7 C54.2,197.1 54.9,196 55.5,194.3 C57.5,188.2 60.1,185.9 60.4,182.4 C60.3,184.3 59.9,189.5 59.9,189.5 C59.9,189.5 61.3,189.8 63.3,183.8 C65.3,177.7 67,172.1 67,172.1 C67,172.1 67.1,181.8 67.5,180.9 C67.9,180 70.7,179.6 71.1,175.4 L71.1,175.4 C71,176.1 70.9,176.8 70.9,177.5 L64,188.5 L65.8,188.6 L61.6,193.8 L53.6,197.7 Z M61,236.7 C62.4,233.8 63.5,224.2 63.9,219.6 C64.1,217.4 65,219.9 65.9,223 C65.3,228.7 64.7,234.6 64.1,240.6 L64,240.5 C64,240.5 60.8,242.3 57,244.6 C58.5,241.6 60.2,238.2 61,236.7 Z M54.5,274.6 L57.9,272.7 L62,258.3 C62,258.3 62,258.5 62.2,258.8 C61.7,263.7 61.2,268.7 60.7,273.9 L54.5,274.6 Z" id="XMLID_178_"></path>
                </g>
                <g id="XMLID_193_" transform="translate(1496.300000, 0.000000)">
                    <path d="M59.6,57.4 L56.9,59.2 C57,58.4 57.1,57.7 57.3,57.2 C57.7,56.1 58.1,53.9 58.5,53.8 C58.9,53.7 59.1,54.1 59.1,54.1 C59.1,54.1 59.7,55 59.7,53.5 C59.6,54.7 59.6,56.1 59.6,57.4 Z M65.6,71.3 C65.7,71.4 65.9,71.6 66,71.7 C65.2,71.4 64.3,71.1 63.7,71 C63.7,70.4 63.6,69.8 63.6,69.2 L63.8,69.6 C63.8,69.5 63.6,68.9 65.6,71.3 Z M46.5,158.4 C46.8,157 47.3,155.3 47.7,153.6 C48.9,148.8 50.3,143.5 50.7,142.8 C51.5,141.4 53.3,143.7 53.3,143.7 C53.3,143.7 55.4,142.5 55.9,140.9 L60.8,142.1 C60.8,143.7 60.9,145.4 60.9,147.1 L47.6,153.6 L52.6,155.4 L46.5,158.4 Z M55,194.9 L47.8,199.9 C48.3,199.2 48.8,198.1 49.2,196.2 C50.4,189.9 52.5,187.2 52.3,183.8 C52.4,185.7 52.8,190.9 52.8,190.9 C52.9,190.9 54.2,190.8 55.3,184.7 C56.5,178.4 57.3,172.6 57.3,172.6 C57.3,172.6 58.7,182.2 59.1,181.2 C59.4,180.3 62.1,179.4 61.9,175.3 C61.9,176 61.9,176.7 62,177.4 L56.7,189.2 L58.5,189.1 L55,194.9 Z M57.7,245.8 C58.9,242.6 60.1,239 60.6,237.4 C61.6,234.3 61.3,224.7 61,220.1 C60.8,217.9 62.1,220.2 63.5,223.2 C63.7,228.9 64,234.8 64.2,240.8 L64.1,240.8 C64.1,240.7 61.2,243 57.7,245.8 Z M59.6,275.8 L62.7,273.4 L64.7,258.5 C64.7,258.5 64.8,258.7 64.9,258.9 C65.1,263.8 65.3,268.9 65.5,274 L59.6,275.8 Z M68.4,147.7 C68.2,144 68,140.3 67.7,136.7 C69.7,138 71.8,139.7 71.8,139.7 L74,146.3 L76.1,146.2 L83,154.2 C78.2,152.2 72.3,149.6 68.4,147.7 Z M69.8,171.8 L75,179.2 L77.9,175.5 L87,187.6 C87,187.6 89,190.6 91.1,193.6 L80.3,190 L83.5,188.4 L81.6,188.5 L70.3,179.5 C70.1,177 70,174.4 69.8,171.8 Z M81,227.7 C80.5,228 76.8,228 76.8,228 L76.8,225.1 L73.2,224.4 C73.2,224.4 73.1,224.4 73,224.4 C72.9,222.7 72.8,221 72.7,219.2 C74.2,219.7 76.5,207 76.5,207 C76.5,207 77.9,210.1 78.6,211.9 C79.3,213.7 80.9,222.8 80.9,222.8 L83.3,210.9 C83.3,210.9 85.4,215.1 86.3,217.8 C87,219.7 88.4,225.3 89.2,228.5 C86.7,228.3 81.4,227.5 81,227.7 Z M92,244.6 C91.2,244.4 90.2,244 89.2,243.6 C86.3,242.3 87,243.6 85.8,243.1 C84.5,242.6 79.8,239.7 79.8,239.7 L80.5,243.2 C80.5,243.2 77.9,241.8 76.6,241 C75.3,240.3 74.9,239.8 74.5,238.8 C74.4,238.6 74.2,238.3 73.9,237.9 C74.1,240.6 74.2,243.3 74.4,246 L76.1,245.6 L76.5,247.6 L88.8,250.3 L92,249.4 L92,276 C89.1,271.9 87.9,270.9 87.9,270.9 L90.4,279.4 C90.4,279.4 85.5,274.9 82.4,272.3 C79.2,269.7 77.5,267.8 77.5,267.8 C77.5,267.8 78.4,273.7 77.3,272.9 C77,272.7 76.6,272.2 76,271.6 C76,272.1 76.1,272.6 76.1,273.1 C79.6,275.5 87.1,280.7 92.1,283.6 L92.1,317.5 C90.7,314.6 89.2,311.6 89.2,311.6 L82.8,299.7 L79.8,302.4 L77.6,298 C78.9,318.7 80,335.7 80.7,346.4 C82.7,375.6 87.5,389.8 92.1,396.7 L92.1,403.7 C85,404.2 72.7,405 51.2,406.4 C60.9,405.8 69.4,391.7 69,346.1 C68.2,330.2 67.5,315 66.9,300.6 C66.4,301 66,301.2 65.8,301.5 C65.4,302.3 65.3,293.8 65.3,293.8 C65.3,293.8 63.9,298.7 62.2,303.9 C60.5,309.1 59.3,308.8 59.3,308.8 C59.3,308.8 59.6,304.8 59.7,303 C59.4,305.8 57.2,307.8 55.5,312.8 C53.7,318 51.3,315.9 51.3,315.9 L51.9,307.3 L45.3,318 C45.3,318 45.3,318 46.1,309.8 C46.9,301.6 45.5,310.7 44.9,312.5 C44.3,314.2 40.3,318 39.7,317.7 C39.1,317.4 39,315 39,314.8 C39,314.8 31.8,318.4 29.1,319.8 C26.4,321.3 33.7,314.1 33.7,314.1 C33.7,314.1 30.2,313.3 28.2,313 C26.1,312.7 20.4,311.3 20.4,311.3 L22.6,307.5 L30.6,307.1 L26.1,305.3 L21.2,301.9 L36.9,299.6 C36.9,299.6 32.6,299.1 31.1,298.7 C29.6,298.3 29.3,297.7 29.3,297.7 L35.2,297 L34.2,295.5 L32.2,294.5 L42,293.6 C42,293.6 46.2,292.5 49.5,291.3 C52.8,290.1 51.4,289.7 52.2,288.8 C53,287.9 55.9,285.8 55.9,285.8 L55.2,280.7 L63.8,278.3 L59.8,276 L58.2,277.2 L57.1,272.1 L50.2,282 L44.5,284.3 L42.5,281.4 C42.5,281.4 37.2,290.1 35.3,290.6 C33.4,291.1 32,289.2 26.9,292.8 C21.8,296.4 17.8,297.5 17.8,297.5 L31.5,285.1 L32.2,279.2 C32.2,279.2 14.2,285.1 14.9,283.8 C15.6,282.5 18.2,280.6 20.2,279.3 C22.2,278 33.4,270.8 33.4,270.8 L27.5,268.9 L38.8,264 L40.9,259.6 C40.9,259.6 47,257.6 47.8,255.3 C48.1,254.3 51.3,251.4 54.8,248.5 C53.9,242.8 52.7,230.9 52.6,229.9 C52.6,230.8 51.8,236.2 51.7,240.5 C51.6,244.9 47.2,247.2 47.2,247.2 L43.7,234.1 C43.7,234.1 41.7,242.1 40.6,245.6 C39.5,249.1 36.6,254.2 34.8,256.4 C33,258.6 34.8,241.4 34.8,241.4 C34.8,241.4 29.1,251 28.5,251.7 C27.9,252.4 27.4,257.3 23.3,261 C19.3,264.6 26.3,246.1 26.7,244.9 C26.3,245.4 23.4,249.8 22.1,252.3 C20.7,254.9 4.5,261.2 4.5,261.2 L10.8,252.2 C10.8,252.2 11.8,249.6 10.8,249.4 C9.8,249.2 6.5,249.7 6.5,249.7 L16.5,243 C16.5,243 0.9,243.6 0.3,242.9 C-0.3,242.3 0.6,241 3.1,240.2 C5.6,239.3 12.1,238.7 12.1,238.7 C12.1,238.7 19.4,232.8 21.9,231.7 C19.9,232.1 14.5,233 14.5,233 L11.5,230 L32.5,222.6 C32.5,222.6 24.8,223.1 22.9,223.2 C20.9,223.3 28.6,219.6 32.8,218.2 C37,216.8 35.2,212.5 35.2,212.5 L28.5,212.9 C28.5,212.9 42.9,206.9 46.7,203.9 C47.8,203 48,202.4 46.5,202.3 C40.2,201.8 46.4,200.9 46.4,200.9 L46.7,200.7 C45.9,200.9 45.2,200.5 45.2,200.5 L44.5,190.6 L38.8,203.9 L38.7,204.2 C38.7,204.2 38.7,204.2 38.7,203.9 C38.7,203.3 38.6,201.3 38.3,194.7 C37.9,185.3 37.8,195.9 37.4,198 C37.1,199.4 35.2,202.3 33.8,203.9 C33.1,204.6 32.6,205.1 32.3,205.1 C32,205 31.7,204.5 31.5,203.9 C31.2,203 31.1,201.9 31.1,201.9 C31.1,201.9 30,202.7 28.4,203.9 C26,205.7 22.5,208.4 20.7,209.7 C18.6,211.4 22,206.5 23.9,203.9 C24.6,203 25.1,202.3 25.1,202.3 C25.1,202.3 21,202.1 18.7,202.3 C16.3,202.5 9.6,202 9.6,202 L11.5,197.3 L20.4,195.1 L15,194.1 L8.9,191.3 L26.3,185.3 C26.3,185.3 21.4,185.6 19.6,185.5 C17.8,185.4 17.4,184.7 17.4,184.7 L23.9,182.6 L22.5,181.1 L20.1,180.3 L30.9,177.3 C30.9,177.3 35.5,175.2 39,173.1 C42.5,171 41,170.9 41.7,169.7 C42.4,168.5 45.4,165.5 45.4,165.5 L43.8,159.8 L45.6,158.9 C45,157.1 44.3,155 43.9,155.5 C43.2,156.2 38.8,168.3 38.8,168.3 L38.1,157.3 C38.1,157.3 30.9,166.4 30.3,165.8 C29.7,165.2 32.7,152.5 34.5,151.3 C36.3,150.1 22.8,157.4 22.4,157.6 C22.6,157.3 25.9,151.8 27.4,149 C29,146.1 28.1,146.2 28.1,146.2 L21.6,146.6 L25.1,145.7 C25.1,145.7 33.7,140.6 36.9,139.4 C40.1,138.2 36.2,139.4 30,139.9 C23.8,140.3 32,139.1 32,139.1 L42,132.8 L37.8,131.5 C37.8,131.5 45,128.6 45.5,127.5 C46,126.4 49.8,125.5 49.8,125.5 L54,122.1 L53.9,120.4 L60.8,115.5 C60.8,114.4 60.8,113.2 60.7,112.1 L57.3,113.8 L57.1,110.6 L52,115.8 L48.3,116.5 L47.4,114.5 C47.4,114.5 43.4,119.1 42.2,119.2 C41,119.3 40.3,117.9 36.9,119.6 C33.5,121.2 30.9,121.4 30.9,121.4 L40.4,115.5 L41.3,112 C41.3,112 29.7,113.5 30.3,112.7 C30.8,112 32.6,111.2 33.9,110.6 C35.2,110 42.7,107 42.7,107 L39.3,105.2 L46.7,103.6 L48.3,101.2 C48.3,101.2 52.2,100.7 52.9,99.4 C53.3,98.6 57.3,96.4 60.4,94.6 C60.4,91.8 60.3,89.1 60.3,86.4 L57.4,88.9 L56.3,91 L54.4,88.5 C54.4,88.5 53.6,91 53.1,94 C52.6,97 52.1,95.1 52.1,95.1 L50.4,91.3 C50.4,91.3 50.1,92.4 49.6,93.5 C49.2,94.7 47.4,97.2 47.2,97.6 C47,97.9 46.1,99.7 46.1,99.7 C46.1,99.7 45.9,96.6 45.8,95.3 C45.7,94 43.7,93.5 43.7,93.5 C43.7,93.5 42.6,95.3 42.5,96.1 C42.4,96.9 40.7,98.3 40.7,98.3 L40.2,94.8 L38.4,96.3 L34.2,99.2 C34.2,99.2 34.5,98 35,97.2 C35.4,96.4 36,95.1 36,95.1 L40.8,89.8 L38.2,89.2 L38.1,87.8 L44.6,83.7 L42.7,82.9 L43.3,82.1 L45,80 L47.8,78 L46.4,78.1 C46.4,78.1 48.5,76.3 49.3,75.8 C50.2,75.3 53.8,72.8 55.7,71.9 C57.5,71 58.4,71.2 58.4,71.2 C58.4,71.2 59.1,71.2 60,71.1 C60,69.3 60,67.5 60,65.8 C60,65.8 60,65.8 60,65.8 C59.8,65.5 58.5,65.3 58.5,65.3 L57.4,65.6 C57.4,65.6 56.1,64.8 55.9,65.1 C55.7,65.4 55.7,68.3 55.6,69.9 C55.6,71.5 54.5,66.9 54.5,66.9 C54.5,66.9 54.2,67.5 54.3,68.1 C54.3,68.7 52.3,72 52.3,73.3 C52.3,72.8 52.2,72.1 52.2,72.1 C52.2,72.1 52.1,69.3 52,69.8 C52,70.3 50.9,71.4 49.2,73.8 C47.4,76.2 46.8,74.1 44,76 C41.3,78 40.6,78.6 40.6,78.6 L42.4,75.2 L44.7,70.8 L48.7,68.4 C48.3,68.5 45.2,69.3 44.9,69.3 C44.6,69.3 41.1,67.5 40.5,67.2 C39.8,66.9 41.8,66.8 41.8,66.8 C41.8,66.8 45.3,66.5 45.9,66 C46.5,65.5 49.9,63.8 50.7,63.7 C51.5,63.6 53.4,61.9 53.4,61.9 L56.7,59.8 L55.8,54.7 C55.8,54.7 54.9,56.2 54.1,57.5 C53.4,58.8 50.2,61.2 50.2,61.2 C50.2,61.2 50.3,60.1 50.7,58.7 C51.1,57.4 50.9,57.3 50.8,58 C50.7,58.7 48.5,58.2 47.2,58.1 C45.9,58 44.6,57.6 44.6,57.6 L48.4,56.5 L53.1,53.3 L58,46.3 C57.9,46.4 57.3,46.9 56.9,47.5 C56.4,48.2 55.4,50.2 53,50.6 C50.5,51 49.9,52.3 49.9,52.3 L50.6,50.1 C50.6,50.1 49.4,50.4 48.9,50.7 C48.4,50.9 45.1,50.1 44.3,50 C43.5,49.9 42.7,48.8 42.7,48.8 C42.7,48.8 44.6,48.8 45.5,48.7 C46.4,48.6 50,48 50,48 L53.5,46.7 L57.3,45.3 L59.1,44.1 L54,43.8 L52.1,40.5 L46.5,37.4 L51.9,37.3 C51.9,37.3 58.2,41.7 60.1,41.2 L60.1,40.8 C59.3,40.7 57.7,40.6 57.7,40.6 L55.3,34.1 L52.7,30.8 L60.3,32.6 L53.2,26.6 L50.7,20.8 L54.3,23.3 L58.4,28.8 L57.3,24.3 C57.3,24.3 57.4,20.4 57.3,19.2 C57.2,18.1 57.5,13.4 57.5,13.4 L57.6,8.8 C57.6,8.8 59.1,4.5 58.1,1.9 C57.1,-0.7 58,0.3 58,0.3 L61.2,13 L60.9,21.8 C60.9,21.8 62,22.2 62.1,21.7 C62.2,21.3 62.2,19.2 62.1,18.5 C62.1,17.8 62.1,16.7 62.1,16.7 L63.7,16.6 L63.8,18.3 L63.7,21.6 L66.9,20.2 L67.1,22.7 L63.4,26.8 L63.7,30.1 C63.7,30.1 64.1,31.1 65.1,30.5 C66.1,30 68.6,29.3 70.5,29 C72.4,28.6 76.6,29.3 76.6,29.3 L73.4,31.6 C73.4,31.6 67.9,34.7 66,35.6 C64.1,36.4 64.1,39.9 64.1,39.9 C64.1,39.9 64.1,39.9 66.8,39 C69.5,38.1 69.7,37.7 69.7,37.7 L78.9,39.4 C78.9,39.4 74.1,41.1 72.1,41.7 C70.7,42.1 67.2,44.2 65.1,45.4 C65.1,45.4 65.2,45.4 65.3,45.5 C67.6,46.6 68,45.7 69.6,45.8 C71.2,46 72.3,45.7 73.5,45.5 C74.7,45.3 80.6,47.3 80.6,47.3 C80.6,47.3 79.2,48.5 78.3,49.3 C77.4,50.1 75.4,50.5 75.2,50.5 C75,50.5 70.7,48.8 70.4,48.7 C70.5,48.9 71.7,50.6 71.5,50.6 C71.3,50.6 69.1,50.7 66.5,50.8 C63.9,50.9 66.5,50.8 67.1,51.8 C67.7,52.8 69.4,53.6 72.3,55.3 C75.2,57 81.6,57.3 82.2,57.8 C82.8,58.4 82.2,57.8 81.3,58.6 C80.4,59.4 80.8,59.4 79.8,59.5 C78.8,59.6 77.5,59.3 74.8,59 C72.1,58.7 69.3,57.2 67.5,56.6 C65.7,55.9 67.5,56.6 67.5,57 C67.5,57.4 70.4,61.2 70.4,61.2 C70.4,61.2 69.3,60.6 68.4,60 C67.5,59.5 65.3,56.9 65,56.5 C64.7,56.1 63.5,54.4 63.5,54.4 L63.2,53.9 C63.3,55.9 63.4,58 63.6,60.1 L67.7,62.5 C67.7,62.5 71.6,64.2 73.1,64.3 C74.7,64.4 83.2,63.6 83.2,63.6 C83.2,63.6 81.7,65.6 81.4,65.6 C81.1,65.6 76.6,67.6 78.9,68.6 C81.2,69.6 81.2,69.6 83.8,70.5 C86.5,71.4 85.2,71.4 85.2,71.4 C85.2,71.4 83,71.6 82.1,71.5 C81.2,71.5 77.6,71.6 76,71.6 C74.5,71.6 73.4,70.5 71.8,69.8 C70.2,69.1 67,68.4 67,68.4 C67,68.4 67.3,69.3 67.9,71.4 C68,71.9 68.1,72.4 68.2,72.7 C68.9,72.9 69.3,73.1 69.3,73.1 L72.9,73.8 L72.9,76.7 C72.9,76.7 76.5,76.7 77.1,76.4 C77.6,76.1 86.6,77.5 86.6,77.5 C86.6,77.5 86.4,78.3 85.4,79.2 C84.4,80.1 81.1,79.6 81.1,79.6 C81.1,79.6 84.4,81.8 87.6,83.5 C89,84.2 90.8,84.7 92.5,85 L92.5,89.7 C91.3,89.8 90,89.8 88.5,89.9 C84.9,90.1 86.9,90.5 86.9,90.5 L90.7,93.9 C90.7,93.9 88.2,93.6 85.4,92.3 C82.5,91 83.2,92.3 82,91.9 C80.7,91.4 76,88.5 76,88.5 L76.7,92 C76.7,92 74.1,90.6 72.8,89.8 C71.5,89.1 71.1,88.6 70.7,87.6 C70.2,86.6 67.2,83 66.1,82.1 C65,81.3 66.3,84.9 66.3,84.9 L67.3,89.6 L65.6,89.6 L65.4,89.5 C65.5,90.9 65.6,92.3 65.7,93.7 L69.1,96 L67.8,97.5 L71.3,97.3 L71.4,98.6 L78.7,101.7 L83.4,101.4 L82,104.5 L90.4,105.5 L85.9,107.4 C85.9,107.4 88.9,108.3 92.6,109.4 L92.6,125 C89.4,123.2 87.4,122.5 87.4,121.8 C87.4,120.9 84.5,118.3 84.5,118.3 L86,123.3 C86,123.3 81.3,123.6 79.2,119.4 C77.1,115.2 76.3,114.1 76.3,114.1 L77.1,119.6 C77.1,119.6 74.5,116.3 72.8,114.4 C71.1,112.5 70.2,111.1 70.2,111.1 C70.2,111.1 70.2,114.8 69.6,114.1 C69.1,113.6 67.9,111.6 66.6,109.4 C66.8,111.9 66.9,114.4 67.1,117 C70.5,119.1 75,122 75.4,123 C76.1,124.6 86.1,128 92.6,132.7 L92.6,147.8 C91.5,147.5 90.8,147.2 90.8,147.2 C90.8,147.2 91.7,148.1 92.6,149.8 L92.6,153.4 L84.9,147.9 L85.4,155.4 C87.2,156.1 88.7,156.6 89.9,156.9 C90.9,157.2 91.8,157.4 92.6,157.5 L92.6,188.7 C92.5,188.6 92.5,188.6 92.4,188.6 C92.4,188.7 92.5,188.9 92.6,189.2 L92.6,195.5 C92.3,195.1 92,194.7 91.7,194.2 L90,194.3 C90,194.3 86.8,195.9 87.6,196.5 C87.9,196.7 90,197.4 92.6,198.1 L92.6,204.5 L92.6,219.2 L90.7,229.3 C90.9,229.3 91,229.3 91,229.3 C91,229.3 90.9,229.7 90.5,230.2 L90.3,231.3 C90.3,231.3 90.2,231 90.1,230.6 C90,230.7 89.9,230.8 89.7,230.9 C88.7,231.8 85.4,231.3 85.4,231.3 C85.4,231.3 88.7,233.5 91.9,235.2 C92.1,235.3 92.3,235.4 92.5,235.5 L92.5,241.6 C89.4,241.8 91.2,242.1 91.2,242.1 L92.5,243.3 L92.5,244.6 L92,244.6 Z" id="XMLID_194_"></path>
                </g>
                <path d="M857.4,351.1 C857.4,351.1 852,352.9 851.7,357.7 C849.7,359.2 849.6,361.6 850.4,363.3 C851.2,365 851.7,370.9 851.7,370.9 L851.8,378.6 C851.8,378.6 848.8,396.4 847.6,401.7 C849.7,398.8 849.7,398.8 849.7,398.8 C849.7,398.8 849.7,403.9 850.3,408.3 C851.3,403.5 851.3,404.1 851.3,404.1 C851.3,404.1 856.1,417.3 862,424.6 C864,435.4 870.7,444.8 870.7,444.8 L870.1,456.8 L865.7,466.8 C865.7,466.8 860.8,465.5 860.7,470 C870.4,471.5 870.7,471.1 870.7,471.1 L876.2,458 C876.2,458 877.3,453.8 878,444.6 C879.9,445.2 879.9,445.2 879.9,445.2 L879.9,440.8 L880.9,443.2 L881.8,440 L881.8,441.4 L883.1,439.8 C883.1,439.8 883.5,450.6 884.5,458 C881.2,464.9 880.4,468 880.4,468 C880.4,468 876.5,467.5 876.5,471.7 C881.8,473.7 886.2,472.8 886.2,472.8 C886.2,472.8 888.6,463.3 892.3,458.2 C892.8,441.5 892.3,438.4 892.3,438.4 C892.3,438.4 901.8,439.1 905.8,441.3 C906.4,454.8 917.6,463.6 917.6,463.6 L917.6,477.7 C917.6,477.7 913.8,477.3 913.3,481.2 C919.4,484.7 922.8,482.8 922.8,482.8 C922.8,482.8 923.3,473.6 926.1,467.9 C921.7,461 923,453.2 923,453.2 L933.2,461 L941.6,475.9 C941.6,475.9 942.5,478.4 940.8,482.5 C937.8,482.5 936.9,484.1 937,486.2 C942,488.1 946,487.1 946,487.1 C946,487.1 948.4,481.3 948.9,478.9 C946,470.1 943.4,457.8 943.4,457.8 L937.5,451.9 C937.5,451.9 935.9,447.2 936.3,440.7 C940.5,445.5 952.8,450.4 958.9,449.3 C954.6,448.4 953.2,446.8 953.2,446.8 C953.2,446.8 962.2,445.9 967.3,438.6 C955.8,439.5 945.2,431.8 945.2,431.8 L948.4,431.9 C948.4,431.9 938.2,421 928,419.2 C920,409 905.8,410.3 905.8,410.3 C905.8,410.3 898.8,401.3 887.8,398.4 C885,395.8 885,395.8 885,395.8 C885,395.8 887,395.8 887.7,395 C883.6,394.2 880.1,391 880.1,391 C880.1,391 881.8,391 882.7,390.2 C879,388.8 876.9,386.7 876.9,386.7 L879.9,386.3 C879.9,386.3 875.4,378.9 871.4,377.1 C870.2,363.6 863,363.1 863,363.1 C863,363.1 859.8,356.7 858.8,355.3 C859,351.5 857.4,351.1 857.4,351.1 Z" id="XMLID_722_"></path>
            </g>
        </g>
    </g>
</svg>