<?xml version="1.0" encoding="UTF-8"?>
<svg width="2883px" height="1621px" viewBox="0 0 2883 1621" version="1.1" xmlns="http://www.w3.org/2000/svg" xmlns:xlink="http://www.w3.org/1999/xlink">
    <title>shutterstock_1399119104 [Converted]</title>
    <g id="Page-1" stroke="none" stroke-width="1" fill="none" fill-rule="evenodd">
        <g id="shutterstock_1399119104-[Converted]" fill="#4E8098" fill-rule="nonzero">
            <path d="M1,727.3 L9.5,719.8 C9.5,719.8 20.4,711.8 23.2,707.8 C26,703.8 35.5,695.8 37,695.3 C38.5,694.8 48,692.3 49.5,695.3 C51,698.3 60,710.6 60,710.6 L73.5,712.8 C73.5,712.8 86.5,729.3 89,731.3 C91.5,733.3 110.5,750.3 110.5,751.8 C110.5,753.3 127,782.8 127,782.8 C127,782.8 151,802.3 154,809.8 C157,817.3 179.5,853.3 179.5,853.3 L208,983.7 L208,911.7 C208,911.7 224.5,892.2 224.5,887.7 C224.5,883.2 236.5,871.2 236.5,871.2 L265,886.2 L328,895.2 L337,890.7 L404.5,923.7 L421,934.2 L469,877.2 L517,838.7 L566.5,809.7 C566.5,809.7 589,781.2 592,773.7 C595,766.2 605.5,740.7 611.5,733.2 C617.5,725.7 629.5,713.7 629.5,713.7 C646,724.2 677.5,754.2 685,764.7 C692.5,775.2 733,809.7 733,809.7 L793,851.7 C793,851.7 815.5,859.2 817,866.7 C818.5,874.2 865,940.2 865,940.2 L883.2,906.6 C883.2,906.6 948.4,897.6 957.4,897.6 C966.4,897.6 1045.1,922.3 1056.4,924.6 C1067.6,926.8 1108.1,935.8 1117.1,929.1 C1126.1,922.4 1153.1,899.9 1153.1,899.9 L1240.8,809.8 L1312.8,780.7 L1355.5,751.3 L1497.2,809.8 C1497.2,809.8 1539.9,825 1564.7,838.8 C1589.4,852.7 1625.4,863.9 1643.4,863.9 C1661.4,863.9 1704.1,868.4 1704.1,868.4 L1755.8,823.4 C1755.8,823.4 1762.5,824.9 1780.5,838.8 C1798.5,852.7 1908.1,874.3 1913.1,867.3 C1918.1,860.3 1944.1,855.4 1980.1,838.8 C2016.1,822.3 2058.1,814.3 2067.1,809.8 C2076.1,805.3 2115.1,798.3 2125.1,791.3 C2135.1,784.3 2154.6,766.3 2154.6,766.3 C2154.6,766.3 2177.1,740.8 2181.6,737.8 C2186.1,734.8 2211.6,725.8 2211.6,725.8 C2211.6,725.8 2216.8,728.8 2228.1,740.8 C2239.3,752.8 2289.6,790.3 2289.6,790.3 L2334.6,823.3 L2345.1,824.8 L2378.1,809.8 L2414.1,832.3 L2472.6,859.3 L2495.1,838.8 L2544.6,847.3 C2544.6,847.3 2565.6,826.3 2573.1,820.3 C2580.6,814.3 2673.6,772.3 2685.6,763.3 C2697.6,754.3 2697.6,754.3 2697.6,754.3 C2697.6,754.3 2742.6,787.3 2748.6,791.8 C2754.6,796.3 2771.1,806.8 2777.1,809.8 C2783.1,812.8 2799.6,820.3 2799.6,820.3 L2864.1,809.8 L2880.6,809.8 L2880.6,1619.6 L1,1619.6 L1,727.3 Z" id="4"></path>
        </g>
    </g>
</svg>