<?xml version="1.0" encoding="UTF-8"?>
<svg width="2883px" height="1621px" viewBox="0 0 2883 1621" version="1.1" xmlns="http://www.w3.org/2000/svg" xmlns:xlink="http://www.w3.org/1999/xlink">
    <title>shutterstock_1399119104 [Converted]</title>
    <g id="Page-1" stroke="none" stroke-width="1" fill="none" fill-rule="evenodd">
        <g id="shutterstock_1399119104-[Converted]" fill-rule="nonzero">
            <g id="5" transform="translate(1.000000, 618.800000)">
                <path d="M2880,125 L2880,1000.7 L0,1000.7 L0,74 L11.2,78.5 C11.2,78.5 16.4,83.4 17.2,84.5 C18,85.6 29.2,95 29.2,95 L36,99.5 L61.5,120.1 L70.5,106.6 C70.5,106.6 85.1,117.8 86.3,118.2 C87.4,118.6 101.7,123.8 103.2,124.9 C104.7,126 142.6,118.9 142.6,118.9 L156.1,119.3 L170.3,136.2 C170.3,136.2 177.1,145.9 177.1,147.1 C177.1,148.3 203.6,122.5 203.6,122.5 L234.6,115.5 L243.6,110.6 L265.6,123.5 L291.6,141.5 L322.1,159.6 L351.3,159.6 L389.5,116.8 L484,103.4 L526.8,105.6 L538,105.6 L576.2,116.8 L628,139.4 L652.8,116.8 L691,134.9 L713.5,143.9 L778.7,159.6 L864.2,159.6 L898,116.8 L910.6,107 L930.1,86.8 L976.6,111.5 L989.4,110 C989.4,110 1014.2,131.7 1017.9,133.2 C1021.7,134.7 1059.1,153.4 1059.1,153.4 L1111.8,159.5 L1197.3,190.9 L1224.3,173 C1224.3,173 1228.8,170.8 1242.3,170.8 C1255.8,170.8 1285.1,166.3 1285.1,166.3 L1312.1,161.8 L1343.6,132.4 L1386.4,132.4 L1411.2,148.3 L1478.7,114.6 L1507.9,132.5 C1507.9,132.5 1528.1,141.6 1534.9,141.6 C1541.7,141.6 1577.7,98.9 1577.7,98.9 L1595.7,92.2 C1595.7,92.2 1618.2,96.4 1622.7,74.1 C1627.2,51.8 1635.8,27.4 1638.7,28.3 C1641.5,29.2 1658.7,5.68434189e-14 1658.7,5.68434189e-14 L1710.5,31.5 L1744.3,51.7 L1766.8,67.4 L1806.9,72.5 C1806.9,72.5 1830.9,107.5 1839.9,110.5 C1848.9,113.5 1880.9,117.5 1887.9,125.5 C1894.9,133.5 1925.9,151.5 1925.9,151.5 L1958.9,139.5 L1973.9,154.5 L2015.9,154.5 L2104.9,106.5 C2104.9,106.5 2160.9,124.5 2175.9,132.5 C2190.9,140.5 2212.9,146.5 2212.9,146.5 L2286.4,111.5 C2286.4,111.5 2322.4,87.5 2325.4,81.5 C2328.4,75.5 2361.4,49.5 2361.4,49.5 L2392.9,33.5 C2392.9,33.5 2428.5,64.9 2435.2,66.3 C2441.9,67.7 2497.9,105.5 2497.9,105.5 L2535.4,122 C2535.4,122 2565.4,102.5 2569.9,102.5 C2574.4,102.5 2590.9,122 2590.9,122 C2590.9,122 2644.9,150.5 2655.4,156.5 C2665.9,162.5 2694.4,180.5 2694.4,180.5 L2725.9,150.5 L2760.4,159.5 C2760.4,159.5 2787.4,161 2794.9,153.5 C2802.4,146 2826.4,132.5 2826.4,132.5 L2854.9,144.5 L2880,125 Z" id="XMLID_734_" fill="#669EB5"></path>
                <path d="M1925.5,151.5 L1906.8,151.2 L1857,145.2 L1831.5,145.2 C1831.5,145.2 1803.7,135.2 1800,135.2 C1796.3,135.2 1780.5,124.2 1780.5,124.2 C1780.5,124.2 1782,139.2 1785.7,150.4 C1789.5,161.6 1793.2,166.9 1793.2,166.9 L1808.2,191.1 C1808.2,191.1 1793.2,184.1 1791.7,181.1 C1790.2,178.1 1770.7,165.4 1767.7,163.9 C1764.7,162.4 1754.2,145.2 1751.2,141.4 C1748.2,137.7 1739.2,130.2 1731.9,124.2 C1724.7,118.2 1728.1,116 1728.1,116 L1717.8,110 L1717.8,129.5 L1725.3,164 L1711.7,145.3 L1695.7,110.1 C1695.7,110.1 1687.3,98.1 1686.6,94.4 C1685.9,90.7 1682.1,66.7 1682.1,66.7 L1678.3,48 L1671.5,28.5 L1658.1,0.2 L1709.9,31.7 L1743.7,51.9 L1766.2,67.6 L1806.3,72.7 C1806.3,72.7 1830.3,107.7 1839.3,110.7 C1848.3,113.7 1880.3,117.7 1887.3,125.7 C1894.5,133.5 1925.5,151.5 1925.5,151.5 Z" id="XMLID_730_" fill="#6AA7BA"></path>
                <path d="M1036,164.5 C1037,167.5 1037,178 1038,181 C1039,184 1042.5,199 1043,202 C1043.5,205 1053,220 1053,220 C1053,220 1043.5,213.5 1041,210.5 C1038.5,207.5 1029,202 1029,202 C1029,202 1013.5,189 1008.9,181.5 C1004.4,174 999,166 999,166 L982,155 L982,185.5 C982,185.5 974,173 971.7,171.5 C969.4,170 962.3,148 962.3,148 L954,127 L949.5,114 L943.5,103.5 L930,86.7 L976.5,111.4 L989.3,109.9 C989.3,109.9 1014.1,131.6 1017.8,133.1 C1021.6,134.6 1059,153.3 1059,153.3 L1060.5,159.3 L1078.5,171.8 L1066.5,170.3 L1048,165.8 C1048,166 1035,161.5 1036,164.5 Z" id="XMLID_729_" fill="#6AA7BA"></path>
                <path d="M2392.5,33.5 L2376,52.1 L2361,78 C2361,78 2361,99 2361,100.5 C2361,102 2355,131 2355,131 L2336.5,153 L2342.5,128 L2342.5,105.8 L2320,119 L2276,135.2 L2212.5,146.4 L2286,111.4 C2286,111.4 2322,87.4 2325,81.4 C2328,75.4 2361,49.4 2361,49.4 L2392.5,33.5 Z" id="XMLID_731_" fill="#6AA7BA"></path>
            </g>
        </g>
    </g>
</svg>