<?xml version="1.0" encoding="UTF-8"?>
<svg width="2883px" height="1621px" viewBox="0 0 2883 1621" version="1.1" xmlns="http://www.w3.org/2000/svg" xmlns:xlink="http://www.w3.org/1999/xlink">
    <title>shutterstock_1399119104 [Converted]</title>
    <g id="Page-1" stroke="none" stroke-width="1" fill="none" fill-rule="evenodd">
        <g id="shutterstock_1399119104-[Converted]" fill-rule="nonzero">
            <g id="6" transform="translate(1.000000, 452.300000)">
                <path d="M2880,275 L2880,1167.2 L0,1167.2 L0,275 L46.5,275 L94.5,266 C94.5,266 114,245 118.5,243.5 C123,242 130.5,242 145.5,236 C160.5,230 184.5,219.5 184.5,219.5 C184.5,219.5 192,219.5 196.5,219.5 C201,219.5 213,228.5 213,228.5 L259.5,254 L273,247.3 C273,247.3 297,236.1 300,231.6 C303,227.1 318,201.6 318,201.6 L337.5,201.6 L378,224.1 L409.5,221.1 C409.5,221.1 463.5,224.1 468,221.1 C472.5,218.1 486,206.1 499.5,201.6 C513,197.1 531,194.1 540,191.1 C549,188.1 565.5,191.1 565.5,191.1 L586.5,189.8 L627,189.8 L699,158.1 L711,165.6 L760.5,192.6 L801,183.6 L817.5,191.1 C817.5,191.1 849,156.6 855,158.1 C861,159.6 874.5,147.6 880.5,143.1 C886.5,138.6 925.5,96.6 925.5,96.6 L942.5,107.1 L973.5,128.1 L996.5,127.1 L1024.5,152.1 L1072.5,185.8 L1093.5,172 C1093.5,172 1110.5,167 1113.5,165 C1116.5,163 1150.5,144 1150.5,144 L1158.5,148 L1179.5,138 C1185.5,131 1219.5,90 1229.5,77 C1239.5,64 1262.5,26 1262.5,26 L1280.5,0 L1292.5,11 L1302.5,7 L1320.5,14 L1334.5,22 L1407.5,81 L1425.5,64 C1425.5,64 1448.5,82 1452.5,84 C1456.5,86 1493.5,110 1493.5,110 L1521.5,130 L1562.5,157 L1606.5,168 L1620.5,189 C1620.5,189 1654.5,200 1661.5,202 C1661.8,202.1 1662.2,202.1 1662.7,202.1 C1673.1,201.8 1720.5,179 1720.5,179 L1770,129.5 L1807.5,149 L1822.5,144.5 C1822.5,144.5 1836,155 1843.5,159.5 C1851,164 1900.5,182 1900.5,182 C1900.5,182 1929,189.5 1935,192.5 C1941,195.5 2051.7,235.4 2053.5,236 L2053.5,236 L2125.5,216.5 L2139,225.5 L2181,200 L2259,177.5 L2289,197 L2341.5,210.5 L2379,221 L2468.5,240 C2468.5,240 2524.5,224 2526.5,221 C2528.5,218 2544.5,195 2544.5,195 L2560.5,191 C2560.5,191 2596.5,203 2602.5,208 C2608.5,213 2654.5,238 2654.5,238 L2758.5,246.5 L2811,261.5 L2880,275 Z" id="XMLID_28_" fill="#90C2E7"></path>
                <path d="M1678.5,247 L1576.5,304.5 L1563,289 C1563,289 1555,271.5 1555,268 C1555,264.5 1546,257.5 1546,257.5 C1546,257.5 1539,247.5 1537.5,244.5 C1536,241.5 1526.5,235 1523,231.5 C1519.5,228 1509,222 1509,222 L1486,212 L1486,215.5 C1486,215.5 1493,225.5 1499,232.5 C1505,239.5 1499,237 1499,237 L1489,230 C1489,230 1474,219.5 1472.5,219 C1471,218.5 1458.5,213.5 1454,211.5 C1449.5,209.5 1437.5,201.5 1437.5,201.5 C1437.5,201.5 1429,193.5 1428,192 C1427,190.5 1418.5,183 1419,186 C1419.5,189 1420,196.5 1420.5,201 C1421,205.5 1421.5,210 1421.5,212 C1421.5,214 1433,230 1433,230 C1433,230 1422.5,222.5 1421,221.5 C1419.5,220.5 1411.5,214.5 1411.5,214.5 C1411.5,214.5 1403.5,204.5 1403,202 C1402.5,199.5 1403,198 1403,196.5 C1403,195 1400.5,183 1400.5,183 L1400.5,174.5 L1396.9,156.9 C1396.9,156.9 1392.8,148.3 1390.9,141.2 C1389,134.1 1382.3,133.7 1373.7,127.3 C1365.1,120.9 1372.6,125.1 1371.8,123.2 C1371,121.3 1365.8,115.7 1365.8,115.7 L1373.7,115.7 L1367.3,107.8 L1356,97.7 L1347.8,90.6 L1347.8,95.5 C1347.8,95.5 1339.6,88.8 1339.2,87.6 C1338.8,86.5 1331.7,79.7 1331.3,78.6 C1330.9,77.5 1320.4,67.4 1320.4,67.4 L1325.3,64.8 C1325.3,64.8 1318.5,58.4 1318.5,55.8 C1318.5,53.2 1309.9,43.8 1309.9,43.8 L1302,38.2 L1307.6,38.2 L1304.6,34.5 L1292.2,24.8 L1283.6,16.6 L1283.6,9.5 L1280.5,0.4 L1292.5,11.4 L1302.5,7.4 L1320.5,14.4 L1334.5,22.4 L1407.5,81.4 L1425.5,64.4 C1425.5,64.4 1448.5,82.4 1452.5,84.4 C1456.5,86.4 1493.5,110.4 1493.5,110.4 L1521.5,130.4 L1562.5,157.4 L1606.5,168.4 L1620.5,189.4 C1620.5,189.4 1654.5,200.4 1661.5,202.4 C1661.8,202.5 1662.2,202.5 1662.7,202.5 L1678.5,247 Z" id="XMLID_17_" fill="#97CDEF"></path>
                <path d="M1072.5,185.8 L1047.7,200.8 C1047.7,200.8 1027.5,214.3 1025.2,215.8 C1023,217.3 1005,236 1005,236 L996.8,251.7 L987.8,229.2 L983.3,211.2 L971.3,198.5 C971.3,198.5 966.8,188 963.8,182.8 C960.8,177.6 963,170.1 963,170.1 L949.5,155.1 L949.5,166.5 L943.5,158.9 L938.3,144.7 L933.8,136.5 L933.8,114.8 L925.6,96.8 L942.6,107.3 L973.6,128.3 L996.6,127.3 L1024.6,152.3 L1072.5,185.8 Z" id="XMLID_18_" fill="#97CDEF"></path>
                <path d="M2053.5,236 C2053.5,236 2027.5,232 2019.5,231.5 C2011.5,231 1998,231.5 1998,231.5 C1998,231.5 1986,228 1980,228 C1974,228 1966.5,223 1959.5,221.5 C1952.5,220 1945,219 1945.5,221 C1946,223 1963.5,234 1968,236.5 C1972.5,239 1985.5,253 1984,253 C1982.5,253 1955,239 1955,239 C1955,239 1939,230.5 1930.5,223.5 C1922,216.5 1920.5,216 1914,214 C1907.5,212 1899.5,210 1899.5,210 C1899.5,210 1899.5,218.5 1901,220 C1902.5,221.5 1901,239 1901,239 C1901,239 1899,238 1895.5,235 C1892,232 1883,221 1883,221 L1864.5,204.9 L1855.1,194.8 L1845,181.7 L1831.5,170.5 L1822.1,158.9 L1820.2,161.9 L1808.2,155.9 L1803.7,161.9 L1803.7,166.5 C1803.7,166.5 1794.3,151.7 1794.3,150.6 C1794.3,149.5 1787.2,143.1 1787.2,143.1 L1770,129.6 L1807.5,149.1 L1822.5,144.6 C1822.5,144.6 1836,155.1 1843.5,159.6 C1851,164.1 1900.5,182.1 1900.5,182.1 C1900.5,182.1 1929,189.6 1935,192.6 C1941,195.5 2051.7,235.4 2053.5,236 L2053.5,236 Z" id="XMLID_16_" fill="#97CDEF"></path>
                <polygon id="XMLID_15_" fill="#97CDEF" points="2468.5 240 2347.5 220.5 2320.5 217.5 2296 216 2296 221.5 2285.5 215 2281 227 2285.5 241.5 2275 232.5 2263 212.5 2259 185.5 2259 177.5 2289 197 2341.5 210.5 2379 221"></polygon>
                <path d="M2623.5,248.9 C2623.8,249.1 2623.9,249.3 2624,249.5 C2624.2,249.8 2623.9,249.5 2623.5,248.9 Z" id="XMLID_21_" fill="#97CDEF"></path>
                <path d="M2654.5,238 C2654.5,238 2646.7,237 2644.2,236.5 C2641.7,236 2634.2,235.5 2634.2,235.5 L2624,232 C2624,232 2614.9,231.5 2617.2,236 C2619.4,240.5 2617.7,241.5 2617.7,241.5 C2617.7,241.5 2621.9,247 2623.4,248.9 C2621.4,247.2 2614.7,243.2 2614.7,243.2 C2614.7,243.2 2609.2,239.7 2607.7,238.2 C2606.2,236.7 2599,226.5 2599,226.5 L2596.8,222.5 L2591,221.3 L2589,225.3 C2589,225.3 2586,231.3 2584.8,233.5 C2583.5,235.7 2580.8,242.8 2580.8,240.5 C2580.8,238.3 2580.5,233.3 2580.5,233.3 C2580.5,233.3 2580.8,225.3 2580.8,223.6 C2580.8,221.8 2575.6,212.6 2575.6,211.6 C2575.6,210.6 2570.6,202.8 2570.6,202.8 L2566.1,201.8 L2566.1,207.3 L2561.1,199.3 L2561.1,194.1 L2544.6,195.1 L2560.6,191.1 C2560.6,191.1 2596.6,203.1 2602.6,208.1 C2608.5,213 2654.5,238 2654.5,238 Z" id="XMLID_22_" fill="#97CDEF"></path>
                <path d="M750.4,198.1 L740.6,197 L743.6,209.4 L741,219.9 C741,219.9 739.5,215.8 738,211.7 C736.5,207.6 728.6,202 728.6,202 L721.8,192.3 L721.8,196.4 L716.6,207.6 L707.2,227.1 L708.7,194.5 L706.1,185.9 L699,166.6 L699,158.2 L711,165.7 L760.5,192.7 L750.4,198.1 Z" id="XMLID_19_" fill="#97CDEF"></path>
                <path d="M378,224 L368.2,225.5 L368.2,233.4 L357.3,230 L347.9,241.5 L341.1,256.9 C341.1,256.9 341.1,248.7 341.1,245.3 L341.1,227.3 C341.1,224.7 340.7,219.1 340.7,219.1 L334.3,210.5 L328.3,205.3 L317.8,201.6 L337.3,201.6 L378,224 Z" id="XMLID_20_" fill="#97CDEF"></path>
                <path d="M259.5,254 L238.9,250.6 L224.3,248.7 C224.3,248.7 218.7,256.9 217.9,256.9 C217.1,256.9 213,273.4 211.5,276.4 C210,279.4 212.3,270.4 211.5,268.9 C210.7,267.4 209.3,260.7 209.3,260.7 L207.1,246.8 L207.1,237.8 L198.5,226.6 L193.6,222.9 L184.6,219.5 C184.6,219.5 192.1,219.5 196.6,219.5 C201.1,219.5 213.1,228.5 213.1,228.5 L259.5,254 Z" id="XMLID_24_" fill="#97CDEF"></path>
            </g>
        </g>
    </g>
</svg>